<svg width="659" height="487" fill="none" xmlns="http://www.w3.org/2000/svg"><g filter="url(#filter0_df_125_1126)"><g filter="url(#filter1_b_125_1126)"><rect x="253" y="22" width="376" height="244" rx="16" fill="url(#paint0_linear_125_1126)" fill-opacity=".25"/><rect x="253.5" y="22.5" width="375" height="243" rx="15.5" stroke="url(#paint1_linear_125_1126)" stroke-opacity=".6"/></g><mask id="mask0_125_1126" style="mask-type:alpha" maskUnits="userSpaceOnUse" x="253" y="22" width="376" height="244"><rect x="253.5" y="22.5" width="375" height="243" rx="15.5" fill="#234690" stroke="#000"/></mask><g mask="url(#mask0_125_1126)"><path d="M249 56.43h384.5" stroke="#2E4276" stroke-opacity=".8"/></g><mask id="mask1_125_1126" style="mask-type:alpha" maskUnits="userSpaceOnUse" x="268" y="56" width="361" height="209"><path fill="url(#paint2_radial_125_1126)" fill-opacity=".9" d="M268 56h361v209H268z"/></mask><g mask="url(#mask1_125_1126)"><path d="M269.1 83.73v-.76h2.06v-5.3h-1.6v-.59a7.26 7.26 0 0 0 1.34-.3c.18-.07.35-.14.5-.23h.68v6.42h1.88v.76h-4.87Zm9.02.14a2.2 2.2 0 0 1-1.37-.44c-.38-.3-.68-.73-.9-1.28a5.74 5.74 0 0 1-.3-2.03c0-1.2.22-2.13.68-2.76.47-.63 1.1-.94 1.9-.94.8 0 1.42.31 1.88.94.46.63.69 1.55.69 2.76 0 .8-.1 1.47-.32 2.03-.2.55-.5.98-.89 1.28-.38.29-.84.44-1.37.44Zm0-.75c.34 0 .63-.1.89-.31.25-.22.45-.55.6-1 .15-.44.22-1 .22-1.69s-.07-1.25-.22-1.69a1.97 1.97 0 0 0-.6-.95 1.36 1.36 0 0 0-.89-.32c-.33 0-.63.1-.89.32-.25.2-.46.52-.6.95-.15.44-.22 1-.22 1.69 0 .68.07 1.25.21 1.7.15.44.36.77.61.99.26.2.56.31.9.31Zm0-2.32a.7.7 0 0 1-.5-.2.75.75 0 0 1-.2-.56.7.7 0 0 1 .2-.54.7.7 0 0 1 .5-.2c.2 0 .36.07.5.2.13.13.2.3.2.54 0 .23-.07.42-.2.55-.14.14-.3.2-.5.2Zm-9.03 19.93v-.76h2.07v-5.3h-1.6v-.59a7.26 7.26 0 0 0 1.34-.3c.18-.07.35-.14.5-.23h.68v6.42h1.88v.76h-4.87Zm6.75 0v-.76h2.07v-5.3h-1.61v-.59a7.34 7.34 0 0 0 1.35-.3c.18-.07.34-.14.5-.23h.68v6.42h1.88v.76h-4.87Zm-6.75 17v-.76h2.07v-5.3h-1.6v-.59a7.54 7.54 0 0 0 1.34-.3c.18-.07.35-.14.5-.23h.68v6.42h1.88v.76h-4.87Zm6.48 0v-.55c.8-.71 1.49-1.34 2.04-1.88a9.7 9.7 0 0 0 1.29-1.47c.29-.44.44-.85.44-1.25 0-.41-.13-.75-.39-1.01-.25-.27-.65-.4-1.18-.4-.34 0-.65.08-.94.25-.29.16-.55.37-.78.62l-.53-.53c.32-.33.67-.6 1.04-.79.37-.2.81-.3 1.32-.3.48 0 .9.09 1.24.27.35.17.62.42.81.73.2.31.3.69.3 1.11 0 .45-.14.9-.42 1.36-.28.46-.67.95-1.17 1.46-.5.5-1.07 1.05-1.72 1.65a10.92 10.92 0 0 1 1.34-.07h2.36v.8h-5.05Zm-6.48 17v-.76h2.07v-5.3h-1.6v-.59a7.54 7.54 0 0 0 1.34-.3c.18-.07.35-.14.5-.23h.68v6.42h1.88v.76h-4.87Zm8.88.14a3.79 3.79 0 0 1-1.95-.52 3.54 3.54 0 0 1-.63-.5l.47-.6c.24.22.53.42.87.6.33.16.73.25 1.19.25.33 0 .62-.05.88-.16.26-.1.46-.26.61-.46.15-.2.23-.43.23-.7 0-.28-.09-.53-.26-.74a1.66 1.66 0 0 0-.83-.5 5.22 5.22 0 0 0-1.52-.18v-.71c.57 0 1.03-.06 1.37-.18.35-.12.6-.28.74-.47.16-.2.24-.44.24-.7a.98.98 0 0 0-.4-.82 1.7 1.7 0 0 0-1.06-.3c-.34 0-.66.06-.97.2-.3.13-.57.3-.8.52l-.5-.58c.3-.26.65-.48 1.03-.64a3.1 3.1 0 0 1 1.27-.26c.45 0 .85.07 1.2.21.37.15.65.35.86.62.21.27.32.6.32 1 0 .43-.15.78-.44 1.06-.29.28-.65.5-1.1.64v.05c.32.06.61.18.88.34.28.16.5.37.66.61.16.25.24.54.24.87 0 .43-.12.8-.36 1.1-.23.3-.54.53-.93.7-.4.16-.83.25-1.3.25Zm-8.88 16.86v-.76h2.07v-5.3h-1.6v-.59a7.54 7.54 0 0 0 1.34-.3c.18-.07.35-.14.5-.23h.68v6.42h1.88v.76h-4.87Zm9.8 0v-4.95l.02-.63.03-.64h-.05a17.87 17.87 0 0 1-.74 1.05l-1.94 2.45h4.67v.74h-5.7v-.62l3.6-4.58h.98v7.18h-.87Zm-9.8 17v-.76h2.07v-5.3h-1.6v-.59a7.54 7.54 0 0 0 1.34-.3c.18-.07.35-.14.5-.23h.68v6.42h1.88v.76h-4.87Zm8.87.14a3.48 3.48 0 0 1-2.59-.98l.47-.61a3.22 3.22 0 0 0 1.18.7c.25.08.53.12.84.12.34 0 .65-.07.92-.2.28-.14.5-.32.66-.56.16-.25.24-.54.24-.88 0-.5-.16-.88-.48-1.16a1.9 1.9 0 0 0-1.28-.42c-.3 0-.56.04-.77.12-.2.07-.44.18-.7.32l-.49-.31.24-3.46h4.06v.8h-3.24l-.2 2.13c.2-.1.41-.16.61-.22a3.18 3.18 0 0 1 1.97.16c.38.16.67.4.9.75.2.33.32.75.32 1.27a2.27 2.27 0 0 1-1.36 2.15c-.4.18-.84.28-1.3.28Zm-8.87 16.86v-.76h2.07v-5.3h-1.6v-.59a7.54 7.54 0 0 0 1.34-.3c.18-.07.35-.14.5-.23h.68v6.42h1.88v.76h-4.87Zm9.27.14c-.4 0-.76-.08-1.1-.22a2.41 2.41 0 0 1-.86-.64c-.25-.3-.44-.65-.59-1.08-.13-.43-.2-.94-.2-1.52 0-.72.08-1.33.25-1.83.16-.51.39-.92.66-1.24a2.7 2.7 0 0 1 2.1-.92c.43 0 .81.07 1.14.22.33.15.62.33.86.54l-.52.58a1.9 1.9 0 0 0-.65-.4 2.02 2.02 0 0 0-1.86.15c-.33.2-.6.53-.8 1-.21.47-.31 1.1-.31 1.9 0 .6.07 1.1.21 1.5.15.4.37.71.64.92.29.2.63.3 1.03.3.28 0 .54-.06.76-.19a1.5 1.5 0 0 0 .76-1.38c0-.5-.14-.87-.4-1.13-.26-.26-.64-.39-1.13-.39-.29 0-.6.08-.93.24-.33.15-.65.4-.95.77l-.04-.73c.3-.3.63-.53.98-.7a2.63 2.63 0 0 1 2.27-.02c.34.16.6.4.8.73.18.33.27.74.27 1.23 0 .46-.1.86-.33 1.2a2.44 2.44 0 0 1-2.06 1.1Zm-9.27 16.86v-.76h2.07v-5.3h-1.6v-.59a7.54 7.54 0 0 0 1.34-.3c.18-.07.35-.14.5-.23h.68v6.42h1.88v.76h-4.87Zm8.2 0c.03-.68.1-1.3.19-1.87a8.62 8.62 0 0 1 1.15-3.05c.29-.47.64-.96 1.04-1.46h-4.14v-.8h5.2v.58c-.48.54-.87 1.06-1.18 1.55a7.77 7.77 0 0 0-1.14 3.14c-.08.57-.13 1.2-.15 1.91h-.97Zm-8.2 17v-.76h2.07v-5.3h-1.6v-.59a7.54 7.54 0 0 0 1.34-.3c.18-.07.35-.14.5-.23h.68v6.42h1.88v.76h-4.87Zm9.05.14c-.54 0-1-.09-1.4-.25-.4-.17-.7-.41-.91-.71-.21-.3-.32-.64-.32-1.01 0-.33.08-.62.23-.86.15-.25.34-.45.57-.62.24-.17.49-.31.74-.43v-.05c-.3-.2-.56-.43-.77-.7-.21-.28-.32-.6-.32-.98a1.68 1.68 0 0 1 1.07-1.6 2.7 2.7 0 0 1 1.15-.24c.7 0 1.24.18 1.63.54a1.75 1.75 0 0 1 .27 2.33c-.21.29-.47.54-.77.75v.05c.27.13.5.28.71.44.22.15.39.34.5.57.14.22.2.5.2.85 0 .36-.1.68-.3.97-.2.29-.49.52-.87.69-.38.17-.85.26-1.4.26Zm.57-4.05c.6-.44.9-.92.9-1.44a1.2 1.2 0 0 0-.67-1.1 1.57 1.57 0 0 0-.79-.18c-.39 0-.7.11-.96.33-.26.21-.39.49-.39.83 0 .29.09.53.25.71.17.19.4.35.69.49.3.12.61.24.97.36Zm-.54 3.36c.53 0 .94-.12 1.22-.35.3-.23.44-.54.44-.91 0-.25-.06-.45-.18-.62a1.3 1.3 0 0 0-.47-.43c-.2-.12-.44-.22-.72-.32l-.88-.3c-.23.12-.44.26-.63.41-.19.15-.33.32-.44.5-.1.2-.16.4-.16.65 0 .26.08.5.22.7.15.2.36.37.63.49.28.12.6.18.97.18Zm-9.08 17.55v-.76h2.07v-5.3h-1.6v-.59a7.54 7.54 0 0 0 1.34-.3c.18-.07.35-.14.5-.23h.68v6.42h1.88v.76h-4.87Zm8.55.14a2.91 2.91 0 0 1-2-.76l.51-.58a2.12 2.12 0 0 0 1.43.57c.4 0 .75-.1 1.08-.3.33-.21.6-.55.8-1.02.2-.47.3-1.1.3-1.9 0-.6-.07-1.1-.22-1.5a1.9 1.9 0 0 0-.63-.91 1.63 1.63 0 0 0-1.01-.32c-.29 0-.55.07-.78.2-.23.13-.4.31-.54.55-.14.24-.2.51-.2.82 0 .5.13.87.4 1.13.25.26.63.4 1.13.4.28 0 .59-.08.92-.23.33-.16.65-.42.96-.79l.03.73c-.3.3-.62.54-1 .72a2.63 2.63 0 0 1-2.27.01 1.8 1.8 0 0 1-.77-.74 2.44 2.44 0 0 1-.28-1.22 2.2 2.2 0 0 1 1.2-2.02 2.72 2.72 0 0 1 2.27-.08c.34.15.62.36.87.66.26.28.45.64.59 1.08a6.03 6.03 0 0 1-.03 3.35c-.17.5-.4.92-.68 1.24-.28.31-.6.54-.97.7-.36.13-.73.2-1.11.2Z" fill="#CACACA" fill-opacity=".2"/></g><rect x="311.47" y="111.42" width="272.64" height="10.48" rx="5.24" fill="#5F82C7" fill-opacity=".2"/><rect x="291" y="92.96" width="272.64" height="10.48" rx="5.24" fill="#5F82C7" fill-opacity=".2"/><rect x="292" y="74" width="175.77" height="10.98" rx="5.49" fill="#5F82C7" fill-opacity=".2"/><rect x="324.95" y="129.89" width="241.68" height="10.98" rx="5.49" fill="#5F82C7" fill-opacity=".2"/><rect x="339.19" y="148.85" width="268.89" height="10.48" rx="5.24" fill="#5F82C7" fill-opacity=".2"/><rect x="339.19" y="167.31" width="129.58" height="10.48" rx="5.24" fill="#BDD2FC" fill-opacity=".2"/><rect x="339.19" y="185.77" width="129.58" height="10.48" rx="5.24" fill="#BDD2FC" fill-opacity=".2"/><rect x="339.19" y="204.23" width="129.58" height="10.48" rx="5.24" fill="#BDD2FC" fill-opacity=".2"/><rect x="324.95" y="222.69" width="246.42" height="10.48" rx="5.24" fill="#5F82C7" fill-opacity=".2"/><circle cx="272.5" cy="41.5" r="3.5" fill="#BDD2FC" fill-opacity=".2"/><circle cx="287.5" cy="41.5" r="3.5" fill="#BDD2FC" fill-opacity=".2"/><circle cx="302.5" cy="41.5" r="3.5" fill="#BDD2FC" fill-opacity=".2"/><rect x="253" y="22" width="376" height="244" rx="16" fill="url(#paint3_linear_125_1126)" fill-opacity=".4"/></g><g filter="url(#filter2_d_125_1126)"><g filter="url(#filter3_b_125_1126)"><rect x="40" y="111" width="502" height="326" rx="16" fill="url(#paint4_linear_125_1126)" fill-opacity=".25"/><rect x="40.5" y="111.5" width="501" height="325" rx="15.5" stroke="url(#paint5_linear_125_1126)" stroke-opacity=".3"/></g><mask id="mask2_125_1126" style="mask-type:alpha" maskUnits="userSpaceOnUse" x="40" y="111" width="502" height="326"><rect x="40.5" y="111.5" width="501" height="325" rx="15.5" fill="#234690" stroke="#000"/></mask><g mask="url(#mask2_125_1126)"><path d="M36 157h514" stroke="#2E4276" stroke-opacity=".8"/></g><mask id="mask3_125_1126" style="mask-type:alpha" maskUnits="userSpaceOnUse" x="60" y="157" width="482" height="279"><path fill="url(#paint6_radial_125_1126)" fill-opacity=".9" d="M60 157h482v279H60z"/></mask><g mask="url(#mask3_125_1126)"><path d="M61.45 195v-1.02h2.77v-7.05h-2.15v-.8a9.74 9.74 0 0 0 1.8-.4c.24-.09.46-.19.66-.3h.91v8.55h2.51V195h-6.5Zm12.04.18c-.7 0-1.32-.2-1.83-.59-.5-.4-.9-.97-1.18-1.7a7.66 7.66 0 0 1-.42-2.7c0-1.62.3-2.84.91-3.68a2.97 2.97 0 0 1 2.52-1.26c1.07 0 1.91.42 2.52 1.26.61.84.92 2.06.92 3.68 0 1.06-.14 1.96-.42 2.7a3.68 3.68 0 0 1-1.19 1.7c-.5.4-1.12.59-1.83.59Zm0-.99c.45 0 .85-.14 1.19-.42.34-.29.6-.73.8-1.32.2-.6.3-1.35.3-2.26 0-.93-.1-1.68-.3-2.25-.2-.59-.46-1.01-.8-1.28a1.8 1.8 0 0 0-1.19-.42c-.44 0-.83.14-1.18.42-.34.27-.61.7-.81 1.28a7.38 7.38 0 0 0-.29 2.25c0 .9.1 1.66.29 2.26.2.59.47 1.03.8 1.32.36.28.75.42 1.2.42Zm0-3.1a.93.93 0 0 1-.66-.28 1 1 0 0 1-.27-.73c0-.31.1-.55.27-.72a.93.93 0 0 1 .66-.27.9.9 0 0 1 .66.27c.18.17.27.41.27.72a1 1 0 0 1-.27.73.9.9 0 0 1-.66.28ZM61.46 218v-1.02h2.76v-7.05h-2.15v-.8a9.74 9.74 0 0 0 1.8-.4c.24-.09.46-.19.66-.3h.91v8.55h2.51V218h-6.5Zm8.99 0v-1.02h2.76v-7.05h-2.15v-.8a9.74 9.74 0 0 0 1.8-.4c.24-.09.46-.19.66-.3h.92v8.55h2.5V218h-6.5Zm-9 23v-1.02h2.77v-7.05h-2.15v-.8a9.74 9.74 0 0 0 1.8-.4c.24-.09.46-.19.66-.3h.91v8.55h2.51V241h-6.5Zm8.64 0v-.74a75.26 75.26 0 0 0 2.73-2.5c.75-.73 1.32-1.38 1.7-1.97a3 3 0 0 0 .6-1.66c0-.55-.18-1-.52-1.35-.34-.35-.86-.53-1.57-.53-.45 0-.87.12-1.26.34-.38.22-.73.49-1.04.82l-.7-.7c.43-.45.89-.8 1.38-1.06.5-.27 1.09-.4 1.77-.4.64 0 1.19.12 1.65.36.47.23.83.55 1.08.97.26.42.39.92.39 1.49 0 .6-.19 1.2-.56 1.81-.37.62-.89 1.26-1.56 1.94-.66.67-1.42 1.4-2.3 2.2l.9-.06.9-.03h3.14V241H70.1Zm-8.64 23v-1.02h2.77v-7.05h-2.15v-.8a9.74 9.74 0 0 0 1.8-.4c.24-.09.46-.19.66-.3h.91v8.55h2.51V264h-6.5Zm11.85.18a5.08 5.08 0 0 1-2.61-.69c-.32-.2-.6-.42-.84-.66l.63-.81a5 5 0 0 0 1.15.8c.45.23.98.34 1.6.34.43 0 .82-.07 1.16-.21.35-.15.63-.35.83-.62.2-.26.3-.57.3-.93 0-.38-.12-.7-.35-.98-.23-.3-.6-.52-1.1-.68a6.96 6.96 0 0 0-2.03-.24v-.94c.76 0 1.37-.08 1.83-.25.46-.16.79-.37.99-.63.2-.26.31-.57.31-.91 0-.47-.18-.84-.54-1.11-.35-.27-.82-.4-1.4-.4-.46 0-.89.09-1.3.27-.4.18-.75.41-1.06.7l-.66-.78c.4-.35.85-.63 1.36-.85a4.14 4.14 0 0 1 1.7-.35c.6 0 1.13.1 1.6.28.48.2.86.47 1.14.83.28.36.42.8.42 1.32 0 .58-.2 1.06-.58 1.43a3.8 3.8 0 0 1-1.46.85v.06c.42.09.81.25 1.17.47.37.2.66.47.87.8.22.33.33.72.33 1.16 0 .57-.16 1.06-.48 1.47-.3.4-.72.71-1.24.93-.52.22-1.1.33-1.74.33ZM61.46 287v-1.02h2.76v-7.05h-2.15v-.8a9.74 9.74 0 0 0 1.8-.4c.24-.09.46-.19.66-.3h.91v8.55h2.51V287h-6.5Zm13.05 0v-6.6a164.75 164.75 0 0 0 .08-1.7h-.08a22.23 22.23 0 0 1-.97 1.4l-2.6 3.27h6.23v.99h-7.6v-.82l4.8-6.11h1.31V287h-1.17Zm-13.06 23v-1.02h2.77v-7.05h-2.15v-.8a9.74 9.74 0 0 0 1.8-.4c.24-.09.46-.19.66-.3h.91v8.55h2.51V310h-6.5Zm11.83.18a4.66 4.66 0 0 1-3.45-1.3l.62-.81a4.24 4.24 0 0 0 1.58.94c.32.1.7.15 1.12.15.45 0 .86-.09 1.23-.27a2.06 2.06 0 0 0 1.2-1.92c0-.66-.22-1.17-.65-1.54-.43-.38-1-.56-1.7-.56-.4 0-.75.05-1.03.15-.28.1-.59.25-.93.44l-.66-.42.32-4.61h5.41v1.06h-4.32l-.25 2.84a3.97 3.97 0 0 1 1.77-.39c.6 0 1.16.1 1.66.31s.9.55 1.19 1c.29.44.43 1 .43 1.69a3.03 3.03 0 0 1-1.81 2.87c-.54.25-1.12.37-1.73.37ZM61.45 333v-1.02h2.77v-7.05h-2.15v-.8a9.74 9.74 0 0 0 1.8-.4c.24-.09.46-.19.66-.3h.91v8.55h2.51V333h-6.5Zm12.36.18c-.52 0-1-.1-1.46-.29a3.2 3.2 0 0 1-1.15-.85 4.31 4.31 0 0 1-.78-1.44 6.85 6.85 0 0 1-.27-2.03c0-.95.1-1.77.33-2.44.22-.68.51-1.23.88-1.65a3.6 3.6 0 0 1 2.8-1.23 4.1 4.1 0 0 1 2.67 1.02l-.7.76a2.56 2.56 0 0 0-.87-.53 2.7 2.7 0 0 0-2.47.2c-.44.26-.8.71-1.08 1.34-.27.62-.4 1.46-.4 2.53 0 .8.09 1.46.28 2 .2.54.48.95.85 1.23.38.27.84.4 1.37.4.38 0 .72-.08 1.02-.25a2 2 0 0 0 1-1.84c0-.67-.17-1.17-.52-1.5-.35-.36-.86-.53-1.52-.53-.38 0-.79.1-1.23.31-.44.2-.86.55-1.27 1.04l-.05-.98c.4-.4.84-.71 1.3-.94a3.51 3.51 0 0 1 3.03-.03c.46.22.8.55 1.06.99.25.44.37.98.37 1.63 0 .61-.15 1.15-.45 1.61a3.25 3.25 0 0 1-2.75 1.47ZM61.45 356v-1.02h2.77v-7.05h-2.15v-.8a9.74 9.74 0 0 0 1.8-.4c.24-.09.46-.19.66-.3h.91v8.55h2.51V356h-6.5Zm10.93 0c.04-.91.13-1.74.26-2.49a11.5 11.5 0 0 1 1.53-4.06c.39-.63.85-1.28 1.4-1.95h-5.53v-1.07h6.93v.76c-.64.73-1.16 1.42-1.57 2.07a10.32 10.32 0 0 0-1.52 4.19c-.1.76-.18 1.61-.2 2.55h-1.3Zm-10.92 23v-1.02h2.76v-7.05h-2.15v-.8a9.74 9.74 0 0 0 1.8-.4c.24-.09.46-.19.66-.3h.91v8.55h2.51V379h-6.5Zm12.06.18c-.72 0-1.34-.11-1.87-.33a2.92 2.92 0 0 1-1.22-.95 2.3 2.3 0 0 1-.42-1.34c0-.44.1-.82.3-1.14.2-.34.46-.61.77-.83.32-.23.65-.42.99-.58v-.06a4.4 4.4 0 0 1-1.04-.94 2.1 2.1 0 0 1-.42-1.3 2.25 2.25 0 0 1 1.43-2.14c.45-.21.96-.32 1.53-.32.93 0 1.65.24 2.17.72a2.33 2.33 0 0 1 .36 3.1c-.28.4-.62.73-1.02 1.01v.06c.35.18.67.38.95.59.29.2.51.46.67.76.17.3.26.68.26 1.14 0 .47-.14.9-.4 1.29a2.7 2.7 0 0 1-1.16.91c-.51.24-1.14.35-1.88.35Zm.75-5.4c.8-.58 1.2-1.22 1.2-1.92a1.6 1.6 0 0 0-.88-1.46 2.1 2.1 0 0 0-1.05-.23c-.52 0-.95.14-1.3.43-.33.28-.5.65-.5 1.11 0 .38.1.7.33.94.23.25.53.47.91.65.4.17.82.33 1.3.48Zm-.72 4.49c.71 0 1.26-.16 1.64-.47.39-.31.58-.72.58-1.22 0-.32-.08-.6-.24-.82a1.75 1.75 0 0 0-.63-.57 5.4 5.4 0 0 0-.96-.44l-1.17-.4c-.3.17-.59.35-.84.55-.25.2-.44.43-.58.68-.14.25-.21.54-.21.86 0 .35.1.66.28.94.2.27.48.49.84.64.37.17.8.25 1.3.25ZM61.45 402v-1.02h2.77v-7.05h-2.15v-.8a9.74 9.74 0 0 0 1.8-.4c.24-.09.46-.19.66-.3h.91v8.55h2.51V402h-6.5Zm11.4.18a3.87 3.87 0 0 1-2.67-1l.69-.79a2.8 2.8 0 0 0 1.9.77c.52 0 1-.14 1.44-.4.44-.28.8-.74 1.07-1.36.27-.63.4-1.47.4-2.54 0-.8-.1-1.46-.3-1.99a2.55 2.55 0 0 0-.84-1.23 2.17 2.17 0 0 0-1.35-.41c-.38 0-.72.08-1.03.26-.3.18-.54.42-.72.74-.18.31-.27.67-.27 1.1 0 .65.17 1.15.52 1.5.35.35.86.52 1.52.52.38 0 .79-.1 1.23-.3A3.9 3.9 0 0 0 75.7 396l.05.98c-.4.4-.83.71-1.32.95a3.51 3.51 0 0 1-3.03.01 2.41 2.41 0 0 1-1.04-.98 3.27 3.27 0 0 1-.37-1.63 2.95 2.95 0 0 1 1.6-2.69 3.63 3.63 0 0 1 3.03-.1c.44.19.83.47 1.16.86.34.39.6.87.78 1.45.19.56.28 1.23.28 2 0 .96-.1 1.78-.33 2.46a4.48 4.48 0 0 1-.9 1.65c-.37.43-.8.74-1.29.94a4 4 0 0 1-1.48.28Z" fill="#CACACA" fill-opacity=".2"/><path d="M89.2 194.98h2.7v-9.06h-2.7v-1.02h3.9v10.08h2.7V196h-6.6v-1.02Zm12.43 1.2c-.56 0-1.07-.1-1.52-.28a3.3 3.3 0 0 1-1.86-2.09 5.15 5.15 0 0 1-.25-1.66c0-.63.08-1.19.25-1.69.18-.5.43-.92.74-1.27a3.1 3.1 0 0 1 1.1-.82c.45-.2.93-.29 1.46-.29.52 0 1 .1 1.41.28a3.4 3.4 0 0 1 1.78 1.98c.17.47.25.97.25 1.52v.57h-5.73v.36c0 .34.05.66.16.95.11.28.27.53.47.75a2.28 2.28 0 0 0 1.74.66c.52 0 .97-.13 1.35-.37.38-.24.67-.56.87-.99l.88.6c-.23.53-.61.96-1.15 1.3-.53.32-1.18.49-1.95.49Zm-.08-7.11a2.3 2.3 0 0 0-1.65.68 2.41 2.41 0 0 0-.64 1.68v.1h4.44v-.16a2.52 2.52 0 0 0-.6-1.66c-.18-.2-.4-.37-.68-.47a2.21 2.21 0 0 0-.87-.17Zm9.31 6.93c-.59 0-1.02-.16-1.3-.5-.27-.32-.4-.75-.4-1.27v-4.95h-2.59v-1.02h1.92c.26 0 .44-.05.54-.15.11-.11.17-.3.17-.56v-2.02h1.15v2.73h3.53v1.02h-3.53v5.7h3.53V196h-3.02Zm-17.88 13.55c-.35 0-.6-.07-.73-.21a.78.78 0 0 1-.22-.56v-.24c0-.22.08-.4.22-.53.14-.16.38-.23.73-.23s.6.07.73.22c.15.15.22.32.22.54v.25c0 .22-.08.4-.22.55-.13.14-.38.21-.73.21Zm-3.39 8.43h2.79v-5.7h-2.79v-1.02h3.99v6.72h2.61V219h-6.6v-1.02Zm8.65 0h2.6v-5.7H98.1v-1.02h2.76v-1.59c0-.52.13-.94.4-1.27.28-.34.72-.5 1.3-.5h2.6v1.02h-3.1v2.34h3.1v1.02h-3.1v5.7h2.76V219h-6.57v-1.02Zm140.04 22.76h-.06a2.5 2.5 0 0 1-2.38 1.44c-.95 0-1.7-.36-2.24-1.06a4.9 4.9 0 0 1-.8-2.99c0-1.28.27-2.28.8-2.98a2.65 2.65 0 0 1 2.24-1.07 2.5 2.5 0 0 1 2.38 1.44h.06v-1.26h1.2V242h-1.2v-1.26Zm-1.98.38c.27 0 .53-.04.77-.11s.45-.17.63-.3c.18-.14.32-.3.42-.5.1-.2.16-.43.16-.69v-2.78c0-.27-.05-.49-.16-.68-.1-.2-.24-.37-.42-.5a1.86 1.86 0 0 0-.63-.31c-.24-.07-.5-.1-.77-.1-.7 0-1.24.21-1.63.64a2.4 2.4 0 0 0-.57 1.68v1.32c0 .7.19 1.27.57 1.7.39.41.93.63 1.63.63Zm5.05-6.86h1.06l.89 6.69h.13l1.32-6.69h1.32l1.33 6.69h.13l.88-6.69h1.04l-1.19 7.74h-1.55l-1.24-6.48h-.12L244.1 242h-1.56l-1.19-7.74Zm14.92 6.48h-.06a2.5 2.5 0 0 1-2.38 1.44c-.96 0-1.7-.36-2.24-1.06a4.9 4.9 0 0 1-.8-2.99c0-1.28.27-2.28.8-2.98a2.65 2.65 0 0 1 2.23-1.07 2.5 2.5 0 0 1 2.39 1.44h.06v-1.26h1.2V242h-1.2v-1.26Zm-1.98.38c.27 0 .53-.04.77-.11.23-.07.44-.17.63-.3.18-.14.31-.3.42-.5.1-.2.16-.43.16-.69v-2.78c0-.27-.06-.49-.16-.68-.1-.2-.25-.37-.43-.5a1.86 1.86 0 0 0-.63-.31c-.24-.07-.49-.1-.76-.1-.7 0-1.25.21-1.63.64a2.4 2.4 0 0 0-.57 1.68v1.32c0 .7.19 1.27.56 1.7.4.41.94.63 1.64.63Zm9.58-8.57c-.35 0-.6-.07-.74-.21a.78.78 0 0 1-.2-.56v-.24c0-.22.06-.4.2-.53.14-.16.39-.23.74-.23s.6.07.73.22c.14.15.21.32.21.54v.25c0 .22-.07.4-.2.55-.15.14-.4.21-.74.21Zm-3.4 8.43h2.8v-5.7h-2.8v-1.02h4v6.72h2.6V242h-6.6v-1.02Zm12.29 1.02c-.6 0-1.03-.16-1.3-.5-.28-.32-.41-.75-.41-1.27v-4.95h-2.58v-1.02h1.92c.26 0 .44-.05.54-.15.1-.11.16-.3.16-.56v-2.02h1.16v2.73h3.52v1.02h-3.52v5.7h3.52V242h-3.01Zm-44.97 115c-.6 0-1.03-.17-1.3-.5-.28-.32-.41-.75-.41-1.27v-4.95h-2.58v-1.02h1.92c.26 0 .44-.05.54-.15.1-.11.16-.3.16-.56v-2.02h1.16v2.73h3.52v1.02h-3.52v5.7h3.52V357h-3.01Zm5.27-1.02h2.27v-5.7h-2.27v-1.02h3.47v1.95h.07c.16-.61.46-1.08.9-1.42a2.7 2.7 0 0 1 1.71-.53h1.08v1.2h-1.45c-.7 0-1.25.2-1.68.6-.42.4-.63.93-.63 1.57v3.35h3V357h-6.47v-1.02Zm14.17-.24h-.06c-.08.19-.18.38-.3.56a2.1 2.1 0 0 1-1.06.76c-.24.08-.52.12-.84.12-.81 0-1.47-.25-1.96-.76a3.07 3.07 0 0 1-.73-2.2v-4.96h1.2v4.75c0 .72.16 1.25.47 1.6.3.33.76.5 1.36.5.24 0 .47-.03.7-.09.24-.06.44-.14.62-.26.18-.13.33-.27.44-.45.1-.2.16-.42.16-.68v-5.37h1.2V357h-1.2v-1.26Zm7.3 1.44c-.56 0-1.06-.1-1.52-.29a3.3 3.3 0 0 1-1.85-2.08 5.15 5.15 0 0 1-.26-1.67c0-.62.09-1.18.25-1.68.19-.5.43-.92.74-1.27a3.1 3.1 0 0 1 1.11-.82c.44-.2.93-.29 1.46-.29.51 0 .98.1 1.4.29.44.19.8.45 1.1.79.3.33.53.72.69 1.19.16.45.24.96.24 1.51v.57h-5.73v.36c0 .34.06.65.16.94.12.3.27.54.47.75a2.28 2.28 0 0 0 1.74.66c.52 0 .97-.12 1.35-.35.38-.25.67-.58.87-1l.88.6c-.23.53-.61.96-1.15 1.3-.53.32-1.18.49-1.95.49Zm-.07-7.11a2.3 2.3 0 0 0-1.66.68 2.41 2.41 0 0 0-.64 1.68v.1h4.44v-.16a2.52 2.52 0 0 0-.6-1.66c-.18-.2-.4-.36-.68-.47a2.21 2.21 0 0 0-.86-.17ZM236.78 380c-.59 0-1.02-.17-1.3-.5-.27-.32-.4-.75-.4-1.27v-4.95h-2.59v-1.02h1.92c.26 0 .44-.05.54-.15.11-.11.17-.3.17-.56v-2.02h1.15v2.73h3.53v1.02h-3.53v5.7h3.53V380h-3.02Zm5.28-1.02h2.26v-5.7h-2.26v-1.02h3.46v1.95h.07c.16-.61.47-1.08.9-1.42a2.7 2.7 0 0 1 1.72-.53h1.07v1.2h-1.45c-.69 0-1.25.2-1.68.6-.42.4-.63.93-.63 1.57v3.35h3V380h-6.47v-1.02Zm14.17-.24h-.06c-.09.19-.19.38-.3.56-.13.16-.28.31-.46.44a2.1 2.1 0 0 1-.61.32c-.24.08-.52.12-.84.12-.81 0-1.46-.25-1.95-.76a3.07 3.07 0 0 1-.73-2.2v-4.96h1.2v4.75c0 .72.15 1.25.46 1.6.31.33.77.5 1.37.5.23 0 .47-.03.7-.09.23-.06.44-.14.62-.26.18-.13.32-.27.43-.45.11-.2.17-.42.17-.68v-5.37h1.2V380h-1.2v-1.26Zm7.3 1.44c-.57 0-1.07-.1-1.52-.29a3.3 3.3 0 0 1-1.86-2.08 5.15 5.15 0 0 1-.26-1.67c0-.62.09-1.18.26-1.68.18-.5.42-.92.73-1.27a3.1 3.1 0 0 1 1.11-.82c.44-.2.93-.29 1.46-.29.52 0 .99.1 1.4.29.44.19.8.45 1.1.79.3.33.53.72.7 1.19.15.45.23.96.23 1.51v.57h-5.73v.36c0 .34.06.65.17.94.1.3.26.54.46.75a2.28 2.28 0 0 0 1.74.66c.52 0 .97-.12 1.35-.35.38-.25.67-.58.87-1l.89.6c-.23.53-.62.96-1.16 1.3-.53.32-1.18.49-1.95.49Zm-.08-7.11a2.3 2.3 0 0 0-1.65.68 2.41 2.41 0 0 0-.65 1.68v.1h4.44v-.16a2.52 2.52 0 0 0-.6-1.66c-.18-.2-.4-.36-.67-.47a2.21 2.21 0 0 0-.87-.17Z" fill="#BE6AA7"/><path d="M362.32 196.13c-.4 0-.7-.08-.87-.25a.9.9 0 0 1-.24-.64v-.28a.9.9 0 0 1 .24-.64c.17-.17.46-.25.87-.25s.7.08.86.25c.17.17.25.39.25.65v.27c0 .25-.08.47-.25.64-.16.17-.45.25-.86.25Zm0-5.94c-.4 0-.7-.08-.87-.25a.9.9 0 0 1-.24-.65v-.26a.9.9 0 0 1 .24-.65c.17-.17.46-.25.87-.25s.7.08.86.25c.17.17.25.38.25.65v.26c0 .27-.08.48-.25.65-.16.17-.45.25-.86.25Zm122.35.23v-1.02h7.14v1.02h-7.14Zm0 3v-1.02h7.14v1.02h-7.14ZM503.2 196v-7.74h1.2v1.26h.06c.08-.19.18-.37.3-.54a1.93 1.93 0 0 1 1.06-.78c.25-.08.53-.12.85-.12.8 0 1.45.26 1.94.78.5.51.74 1.23.74 2.17V196h-1.2v-4.75c0-.72-.15-1.24-.46-1.58-.31-.35-.77-.52-1.37-.52-.24 0-.47.03-.7.09-.24.05-.44.14-.62.26a1.3 1.3 0 0 0-.6 1.13V196h-1.2Zm13.85-1.26H517c-.09.19-.18.38-.3.55a2.1 2.1 0 0 1-1.07.77c-.24.08-.52.12-.84.12-.81 0-1.46-.25-1.95-.77a3.07 3.07 0 0 1-.74-2.19v-4.96h1.2v4.75c0 .72.16 1.25.47 1.6.31.33.76.5 1.37.5.24 0 .47-.03.7-.09.23-.06.43-.15.62-.27.17-.12.32-.26.43-.44.11-.2.16-.42.16-.68v-5.37h1.2V196h-1.2v-1.26Zm3.87.24h2.7v-9.06h-2.7v-1.02h3.9v10.08h2.7V196h-6.6v-1.02Zm-402.86 19.36a9.01 9.01 0 0 1 .91-4 8.18 8.18 0 0 1 2.2-2.74h1.22a8.4 8.4 0 0 0-2.95 4.25c-.17.59-.26 1.2-.26 1.84v1.29c0 .64.09 1.26.26 1.86a7.9 7.9 0 0 0 2.95 4.23h-1.21c-.42-.31-.82-.7-1.2-1.17a8.64 8.64 0 0 1-1.92-5.56Zm128.76 0a8.69 8.69 0 0 1-.92 3.98c-.28.59-.62 1.11-1 1.58s-.78.86-1.2 1.17h-1.21a8.84 8.84 0 0 0 2.25-2.56 6.79 6.79 0 0 0 .96-3.53v-1.29a7.07 7.07 0 0 0-.96-3.51 8.84 8.84 0 0 0-2.25-2.58h1.22a7.68 7.68 0 0 1 2.19 2.75c.28.58.51 1.2.67 1.89.17.66.25 1.36.25 2.1Zm16.85 6.73c-.42 0-.73-.12-.94-.36a1.24 1.24 0 0 1-.32-.87v-.94c0-.28.03-.51.08-.71.06-.2.13-.38.2-.54.09-.16.18-.3.28-.42l.28-.36c.17-.2.29-.37.35-.51.07-.15.1-.3.1-.47a.86.86 0 0 0-.52-.82 3.48 3.48 0 0 0-1.55-.27h-1.17v-.93h1.17c.68 0 1.2-.09 1.55-.25a.89.89 0 0 0 .52-.84 1 1 0 0 0-.1-.46 2.02 2.02 0 0 0-.35-.52l-.28-.34a3.01 3.01 0 0 1-.48-.97 3.12 3.12 0 0 1-.08-.72v-.94c0-.35.1-.64.32-.87.2-.24.52-.36.94-.36h2.64v.93h-2.86v1.16a2 2 0 0 0 .18.94c.12.22.26.44.42.65.17.22.33.44.48.69.15.22.22.5.22.82 0 .42-.15.76-.45 1.02a2.2 2.2 0 0 1-1.2.5v.06c.51.06.91.23 1.2.49.3.26.45.6.45 1.02 0 .32-.07.6-.22.84-.15.23-.31.46-.48.68-.16.2-.3.42-.42.64a2 2 0 0 0-.18.95v1.15h2.86v.93h-2.64Zm-48.82 15.35v-1.02h7.14v1.02h-7.14Zm0 3v-1.02h7.14v1.02h-7.14Zm-41.4 25.72c-.41 0-.7-.09-.87-.26a.9.9 0 0 1-.24-.64v-.28a.9.9 0 0 1 .24-.64c.17-.17.46-.25.87-.25.4 0 .7.08.85.25.17.17.26.38.26.64v.28c0 .25-.09.47-.26.64-.16.17-.44.25-.85.25Zm0-5.94c-.41 0-.7-.09-.87-.26a.9.9 0 0 1-.24-.64v-.28a.9.9 0 0 1 .24-.64c.17-.17.46-.25.87-.25.4 0 .7.08.85.25.17.17.26.38.26.64v.28c0 .25-.09.47-.26.64-.16.17-.44.25-.85.25Zm18.27 7.87c-.42 0-.73-.12-.94-.36a1.24 1.24 0 0 1-.32-.87v-.94c0-.27.03-.51.08-.71.06-.2.13-.38.2-.54.09-.16.18-.3.28-.42l.28-.36c.17-.2.29-.37.35-.51.07-.15.1-.3.1-.47a.86.86 0 0 0-.52-.82 3.48 3.48 0 0 0-1.55-.27h-1.17v-.93h1.17c.68 0 1.2-.08 1.55-.25a.89.89 0 0 0 .52-.85 1 1 0 0 0-.1-.44 2.02 2.02 0 0 0-.35-.53l-.28-.35a3.01 3.01 0 0 1-.48-.95 3.12 3.12 0 0 1-.08-.72v-.95c0-.35.1-.64.32-.87.2-.24.52-.36.94-.36h2.64v.93h-2.86v1.16a2 2 0 0 0 .18.94c.12.22.26.44.42.64.17.23.33.46.48.7.15.22.22.5.22.82 0 .42-.15.76-.45 1.02a2.2 2.2 0 0 1-1.2.5v.06c.51.06.91.23 1.2.49.3.26.45.6.45 1.02 0 .32-.07.6-.22.84-.15.23-.31.45-.48.67-.16.22-.3.43-.42.65a2 2 0 0 0-.18.94v1.16h2.86v.93h-2.64Zm62.68 21.06c-.41 0-.7-.08-.88-.25a.9.9 0 0 1-.24-.64v-.28a.9.9 0 0 1 .25-.64c.16-.17.46-.25.87-.25.4 0 .69.08.85.25.17.17.25.38.25.64v.28c0 .25-.08.47-.25.64-.16.17-.44.25-.85.25Zm0-5.94c-.41 0-.7-.08-.88-.25a.9.9 0 0 1-.24-.64v-.28a.9.9 0 0 1 .25-.64c.16-.17.46-.25.87-.25.4 0 .69.08.85.25.17.17.25.38.25.64v.28c0 .25-.08.47-.25.64-.16.17-.44.25-.85.25Zm134.26 3.77h1.94l-1.73 4.16h-1l.8-4.16ZM128.2 299.6c.42 0 .74.12.95.36.2.23.31.52.31.87v.94c0 .28-.03.52-.09.73a2.63 2.63 0 0 1-.46.95l-.29.35c-.17.2-.29.38-.36.52-.06.14-.09.3-.09.45 0 .38.18.67.53.85.35.17.86.25 1.54.25h1.17v.93h-1.17c-.68 0-1.2.09-1.54.27a.86.86 0 0 0-.53.82c0 .17.03.32.1.47.06.14.18.31.35.51l.29.36a2.63 2.63 0 0 1 .47.96c.05.2.08.44.08.7v.95c0 .35-.1.64-.31.87-.21.24-.53.36-.95.36h-2.64v-.93h2.87v-1.15a2 2 0 0 0-.18-.95 5.07 5.07 0 0 0-.42-.65c-.17-.21-.33-.44-.48-.67a1.55 1.55 0 0 1-.23-.84c0-.42.15-.76.44-1.02.3-.26.7-.43 1.21-.5v-.06a2.29 2.29 0 0 1-1.21-.49 1.3 1.3 0 0 1-.44-1.02c0-.32.08-.6.23-.83.15-.23.3-.46.48-.69.16-.2.3-.42.42-.64a2 2 0 0 0 .18-.94v-1.16h-2.87v-.93h2.64Zm8.64 9.36h1.93l-1.72 4.16h-1l.79-4.16Zm54.6 25.18c-.4 0-.7-.09-.86-.26a.9.9 0 0 1-.24-.64v-.28a.9.9 0 0 1 .24-.64c.17-.17.46-.25.87-.25.4 0 .7.08.85.25.17.17.26.38.26.64v.28c0 .25-.09.47-.26.64-.16.17-.44.25-.85.25Zm0-5.94c-.4 0-.7-.09-.86-.26a.9.9 0 0 1-.24-.64v-.28a.9.9 0 0 1 .24-.64c.17-.17.46-.25.87-.25.4 0 .7.08.85.25.17.17.26.38.26.64v.28c0 .25-.09.47-.26.64-.16.17-.44.25-.85.25Zm18.28 7.87c-.42 0-.74-.12-.95-.36a1.24 1.24 0 0 1-.31-.87v-.94c0-.27.02-.51.07-.71.06-.2.13-.38.21-.54.08-.16.17-.3.27-.42l.29-.36c.17-.2.28-.37.34-.51.07-.15.1-.3.1-.47a.86.86 0 0 0-.52-.82 3.48 3.48 0 0 0-1.54-.27h-1.17v-.93h1.17c.68 0 1.2-.08 1.54-.25a.89.89 0 0 0 .53-.85 1 1 0 0 0-.1-.44 2.02 2.02 0 0 0-.35-.53l-.29-.35a3.01 3.01 0 0 1-.48-.95 3.12 3.12 0 0 1-.07-.73v-.94c0-.35.1-.64.31-.87.21-.24.53-.36.95-.36h2.64v.93h-2.87v1.16a2 2 0 0 0 .18.94c.12.22.26.44.42.64.17.23.33.46.48.7.15.22.23.5.23.82 0 .42-.15.76-.45 1.02a2.2 2.2 0 0 1-1.2.5v.06c.5.06.9.23 1.2.49.3.26.45.6.45 1.02 0 .32-.08.6-.23.84-.15.23-.3.45-.48.67-.16.22-.3.43-.42.65a2 2 0 0 0-.18.94v1.16h2.87v.93h-2.64Zm-.29 21.06c-.4 0-.7-.08-.87-.25a.9.9 0 0 1-.24-.64v-.28a.9.9 0 0 1 .24-.64c.17-.17.46-.25.87-.25s.7.08.86.25c.17.17.25.38.25.64v.28c0 .25-.08.47-.25.64-.16.17-.45.25-.86.25Zm0-5.94c-.4 0-.7-.08-.87-.25a.9.9 0 0 1-.24-.64v-.28a.9.9 0 0 1 .24-.64c.17-.17.46-.25.87-.25s.7.08.86.25c.17.17.25.38.25.64v.28c0 .25-.08.47-.25.64-.16.17-.45.25-.86.25Zm53.32 3.77h1.94l-1.73 4.16h-1l.8-4.16Zm-44.32 25.18c-.41 0-.7-.09-.87-.26a.9.9 0 0 1-.24-.64v-.28a.9.9 0 0 1 .24-.64c.17-.17.46-.25.87-.25.4 0 .7.08.85.25.17.17.26.38.26.64v.28c0 .25-.09.47-.26.64-.16.17-.44.25-.85.25Zm0-5.94c-.41 0-.7-.09-.87-.26a.9.9 0 0 1-.24-.64v-.28a.9.9 0 0 1 .24-.64c.17-.17.46-.25.87-.25.4 0 .7.08.85.25.17.17.26.38.26.64v.28c0 .25-.09.47-.26.64-.16.17-.44.25-.85.25Zm53.32 3.76h1.93l-1.72 4.16h-1l.79-4.16ZM128.19 391.6c.42 0 .74.12.95.36.2.23.31.52.31.87v.94c0 .28-.03.52-.09.73a2.63 2.63 0 0 1-.46.95l-.29.35c-.17.2-.29.38-.36.52-.06.14-.09.3-.09.45 0 .38.18.67.53.85.35.17.86.25 1.54.25h1.17v.93h-1.17c-.68 0-1.2.09-1.54.27a.86.86 0 0 0-.53.82c0 .17.03.32.1.47.06.14.18.31.35.51l.29.36a2.63 2.63 0 0 1 .47.96c.05.2.08.44.08.7v.95c0 .35-.1.64-.31.87-.21.24-.53.36-.95.36h-2.64v-.93h2.87v-1.15a2 2 0 0 0-.18-.95 5.07 5.07 0 0 0-.42-.65c-.17-.21-.33-.44-.48-.67a1.55 1.55 0 0 1-.23-.84c0-.42.15-.76.44-1.02.3-.26.7-.43 1.21-.5v-.06a2.29 2.29 0 0 1-1.21-.49 1.3 1.3 0 0 1-.44-1.02c0-.32.08-.6.23-.83.15-.23.3-.46.48-.69.16-.2.3-.42.42-.64a2 2 0 0 0 .18-.94v-1.16h-2.87v-.93h2.64Zm8.64 9.36h1.93l-1.72 4.16h-1l.79-4.16Z" fill="#fff"/><path d="M128.48 196.18c-.54 0-1.03-.1-1.47-.28a3.18 3.18 0 0 1-1.8-2.09 5.5 5.5 0 0 1-.24-1.68c0-.61.08-1.16.24-1.66.16-.5.39-.93.69-1.28a3.1 3.1 0 0 1 1.1-.82c.45-.2.94-.29 1.48-.29s1.02.1 1.45.28c.44.2.81.47 1.11.83.31.35.55.78.7 1.28.17.5.25 1.05.25 1.66a5.5 5.5 0 0 1-.24 1.68c-.16.49-.4.91-.7 1.28-.3.34-.68.62-1.12.8-.43.2-.91.29-1.45.29Zm0-1.03c.67 0 1.2-.2 1.62-.6.4-.4.61-1.03.61-1.87v-1.1c0-.84-.2-1.47-.61-1.87-.41-.4-.95-.6-1.62-.6-.67 0-1.21.2-1.62.6-.41.4-.62 1.03-.62 1.86v1.12c0 .84.2 1.46.62 1.85.4.4.95.6 1.62.6Zm5.65-.17h2.26v-5.7h-2.26v-1.02h3.46v1.95h.08c.16-.61.46-1.09.9-1.43a2.7 2.7 0 0 1 1.7-.52h1.09v1.2h-1.46c-.69 0-1.25.2-1.68.6-.42.4-.63.93-.63 1.57v3.35h3V196h-6.46v-1.02Zm12.81-8.43c-.34 0-.59-.07-.73-.21a.78.78 0 0 1-.21-.56v-.24c0-.22.07-.4.21-.53.14-.16.38-.23.73-.23s.6.07.74.22.21.32.21.54v.25c0 .22-.07.4-.21.55-.14.14-.39.21-.74.21Zm-3.38 8.43h2.78v-5.7h-2.78v-1.02h3.98v6.72h2.62V196h-6.6v-1.02Zm15.81 1.9c0 .78-.32 1.36-.97 1.73-.65.38-1.63.57-2.93.57a5.5 5.5 0 0 1-2.7-.5c-.54-.33-.8-.8-.8-1.42 0-.42.1-.75.32-.97.22-.23.53-.4.93-.51v-.19a1.34 1.34 0 0 1-.5-.41 1.1 1.1 0 0 1-.19-.65c0-.4.13-.7.4-.9.26-.2.6-.35 1-.45v-.06a2.52 2.52 0 0 1-1.13-.93 2.63 2.63 0 0 1-.39-1.44c0-.39.07-.75.21-1.08.14-.33.34-.61.6-.84.27-.24.6-.43.96-.56.37-.13.78-.19 1.23-.19.58 0 1.1.1 1.53.31v-.13c0-.3.07-.55.21-.75.14-.2.38-.3.72-.3h1.43v1.05h-1.74v.53a2.45 2.45 0 0 1 .87 1.96c0 .39-.08.75-.23 1.08a2.45 2.45 0 0 1-1.56 1.4 3.69 3.69 0 0 1-1.6.18 4.42 4.42 0 0 1-.36-.05 1.93 1.93 0 0 0-.74.28.94.94 0 0 0-.27.26c-.07.1-.1.22-.1.34 0 .23.11.39.34.47.23.07.53.1.9.1h1.71c1 0 1.73.2 2.18.57.45.38.67.88.67 1.5Zm-1.12.06a.9.9 0 0 0-.38-.75c-.25-.18-.68-.26-1.3-.26h-2.69c-.52.2-.78.56-.78 1.04 0 .34.14.63.4.88.28.25.73.37 1.36.37h1.17c.7 0 1.24-.11 1.63-.33.4-.21.59-.52.59-.94Zm-2.84-4.45c.6 0 1.04-.14 1.32-.42.3-.28.44-.65.44-1.11v-.44c0-.46-.15-.82-.44-1.09-.28-.28-.72-.42-1.32-.42-.6 0-1.04.14-1.32.42-.28.27-.42.63-.42 1.1v.43c0 .46.14.83.42 1.11.28.28.72.42 1.32.42Zm9.52-5.94c-.35 0-.6-.07-.73-.21a.78.78 0 0 1-.21-.56v-.24c0-.22.07-.4.2-.53.15-.16.4-.23.74-.23.35 0 .6.07.74.22s.2.32.2.54v.25c0 .22-.06.4-.2.55-.14.14-.39.21-.74.21Zm-3.39 8.43h2.8v-5.7h-2.8v-1.02h4v6.72h2.6V196h-6.6v-1.02Zm8.88 1.02v-7.74h1.2v1.26h.06c.08-.19.18-.37.3-.54a1.93 1.93 0 0 1 1.06-.78c.24-.08.52-.12.84-.12.81 0 1.46.26 1.95.78.5.51.74 1.23.74 2.17V196h-1.2v-4.75c0-.72-.16-1.24-.47-1.58-.3-.35-.76-.52-1.36-.52-.24 0-.48.03-.7.09-.24.05-.44.14-.62.26a1.3 1.3 0 0 0-.6 1.13V196h-1.2Zm13.9-1.26h-.06a2.5 2.5 0 0 1-2.39 1.44c-.95 0-1.7-.36-2.23-1.06a4.9 4.9 0 0 1-.8-2.99c0-1.28.27-2.28.8-2.98a2.65 2.65 0 0 1 2.23-1.07 2.5 2.5 0 0 1 2.39 1.44h.06v-1.26h1.2V196h-1.2v-1.26Zm-1.98.38c.27 0 .52-.04.76-.11s.45-.17.63-.3c.18-.14.32-.3.42-.5.11-.2.17-.43.17-.69v-2.78c0-.27-.06-.49-.17-.68-.1-.2-.24-.37-.42-.5a1.86 1.86 0 0 0-.63-.31c-.24-.07-.5-.1-.76-.1-.7 0-1.25.21-1.64.64a2.4 2.4 0 0 0-.57 1.68v1.32c0 .7.2 1.27.57 1.7.4.41.94.63 1.64.63Zm5.8-.14h2.7v-9.06h-2.7v-1.02h3.9v10.08h2.7V196h-6.6v-1.02Zm10.4 1.02h-1.26v-10.47h3.81c.97 0 1.71.26 2.22.8.51.52.76 1.26.76 2.21 0 .86-.22 1.53-.66 2.05-.44.5-1.07.8-1.91.88l2.66 4.53h-1.4l-2.55-4.47h-1.67V196Zm2.52-5.53c.53 0 .94-.13 1.23-.4.3-.26.45-.64.45-1.13v-.78c0-.5-.15-.87-.45-1.13-.29-.27-.7-.4-1.23-.4h-2.52v3.84h2.52Zm8.5 5.71c-.56 0-1.07-.1-1.52-.28a3.3 3.3 0 0 1-1.86-2.09 5.15 5.15 0 0 1-.25-1.66c0-.63.08-1.19.25-1.69.18-.5.43-.92.74-1.27a3.1 3.1 0 0 1 1.1-.82c.45-.2.93-.29 1.46-.29.52 0 1 .1 1.41.28a3.4 3.4 0 0 1 1.78 1.98c.17.47.25.97.25 1.52v.57h-5.73v.36c0 .34.05.66.16.95.11.28.27.53.47.75a2.28 2.28 0 0 0 1.74.66c.52 0 .97-.13 1.35-.37.38-.24.67-.56.87-.99l.88.6c-.23.53-.61.96-1.15 1.3-.53.32-1.18.49-1.95.49Zm-.08-7.11a2.3 2.3 0 0 0-1.65.68 2.41 2.41 0 0 0-.64 1.68v.1h4.44v-.16a2.52 2.52 0 0 0-.6-1.66c-.18-.2-.4-.37-.68-.47a2.21 2.21 0 0 0-.87-.17Zm9.03 7.11c-.81 0-1.51-.14-2.1-.4a4.7 4.7 0 0 1-1.49-1.12l.81-.7a3.67 3.67 0 0 0 2.8 1.22c.6 0 1.1-.11 1.48-.32.39-.22.58-.56.58-1.02 0-.2-.04-.37-.12-.5a.8.8 0 0 0-.3-.33 3.8 3.8 0 0 0-.94-.3l-1.22-.18c-.27-.03-.56-.09-.88-.16-.31-.07-.6-.18-.86-.33a2.2 2.2 0 0 1-.66-.63c-.17-.26-.25-.6-.25-1.02 0-.39.07-.72.22-1 .16-.3.38-.53.66-.72.28-.2.61-.35 1-.44.37-.1.79-.15 1.24-.15.7 0 1.3.11 1.81.33.52.22.97.53 1.34.91l-.78.74a2.2 2.2 0 0 0-.35-.33c-.13-.12-.3-.22-.5-.31a2.8 2.8 0 0 0-.67-.24 4.03 4.03 0 0 0-.9-.1c-.6 0-1.08.11-1.4.32-.33.21-.49.51-.49.91 0 .2.04.38.1.51.09.14.2.24.32.32.13.08.28.15.44.2l.5.1 1.22.18c.28.04.58.1.89.16.3.07.6.19.85.35.26.15.48.36.65.62.18.25.27.6.27 1.01 0 .78-.3 1.37-.9 1.79a4 4 0 0 1-2.37.63Zm9.17 0c-.56 0-1.06-.1-1.5-.28a3.2 3.2 0 0 1-1.1-.83c-.3-.35-.52-.78-.68-1.28a5.78 5.78 0 0 1 .01-3.32c.16-.5.4-.93.7-1.28.3-.36.66-.63 1.09-.82a3.6 3.6 0 0 1 1.47-.29c.75 0 1.36.16 1.83.5.47.32.81.75 1.03 1.28l-.96.51a1.8 1.8 0 0 0-.7-.93 2.07 2.07 0 0 0-1.2-.32c-.35 0-.67.06-.95.17-.27.12-.5.28-.69.49-.19.2-.33.46-.43.75-.1.28-.14.6-.14.94v1.32c0 .34.05.66.14.95a2 2 0 0 0 1.14 1.24c.28.11.6.16.96.16.52 0 .95-.11 1.29-.35.34-.25.6-.57.8-1l.86.59c-.23.52-.59.95-1.08 1.29a3.2 3.2 0 0 1-1.89.51Zm5.7-11.28h1.2v4.62h.06c.08-.19.18-.37.3-.54a1.93 1.93 0 0 1 1.06-.78c.24-.08.52-.12.84-.12.81 0 1.46.26 1.95.78.5.51.74 1.23.74 2.17V196h-1.2v-4.75c0-.72-.16-1.24-.47-1.58-.3-.35-.76-.52-1.36-.52-.24 0-.48.03-.7.09-.24.05-.44.14-.62.26a1.3 1.3 0 0 0-.6 1.13V196h-1.2v-11.1Zm12.16 11.28c-.56 0-1.07-.1-1.52-.28a3.3 3.3 0 0 1-1.86-2.09 5.15 5.15 0 0 1-.25-1.66c0-.63.08-1.19.25-1.69.18-.5.43-.92.74-1.27a3.1 3.1 0 0 1 1.1-.82c.44-.2.93-.29 1.46-.29.52 0 .99.1 1.41.28a3.4 3.4 0 0 1 1.78 1.98c.16.47.25.97.25 1.52v.57h-5.74v.36c0 .34.06.66.17.95.11.28.26.53.46.75a2.28 2.28 0 0 0 1.75.66c.52 0 .97-.13 1.34-.37.38-.24.68-.56.88-.99l.88.6c-.23.53-.61.96-1.15 1.3-.53.32-1.19.49-1.96.49Zm-.08-7.11a2.3 2.3 0 0 0-1.65.68 2.41 2.41 0 0 0-.65 1.68v.1h4.44v-.16a2.52 2.52 0 0 0-.6-1.66c-.18-.2-.4-.37-.67-.47a2.21 2.21 0 0 0-.87-.17Zm10.81 5.67h-.06a2.5 2.5 0 0 1-2.38 1.44c-.96 0-1.7-.36-2.24-1.06a4.9 4.9 0 0 1-.8-2.99c0-1.28.27-2.28.8-2.98a2.65 2.65 0 0 1 2.23-1.07 2.5 2.5 0 0 1 2.39 1.44h.06v-4.62h1.2V196h-1.2v-1.26Zm-1.98.38c.27 0 .53-.04.77-.11.23-.07.44-.17.63-.3.18-.14.31-.3.42-.5.1-.2.16-.43.16-.69v-2.78c0-.27-.06-.49-.16-.68-.1-.2-.25-.37-.43-.5a1.86 1.86 0 0 0-.63-.31c-.24-.07-.49-.1-.76-.1-.7 0-1.25.21-1.63.64a2.4 2.4 0 0 0-.57 1.68v1.32c0 .7.19 1.27.56 1.7.4.41.94.63 1.64.63Zm10.93-.38h-.06c-.08.19-.18.38-.3.55a2.1 2.1 0 0 1-1.06.77c-.25.08-.53.12-.85.12-.8 0-1.46-.25-1.95-.77a3.07 3.07 0 0 1-.73-2.19v-4.96h1.2v4.75c0 .72.15 1.25.46 1.6.31.33.77.5 1.37.5.24 0 .47-.03.7-.09.23-.06.44-.15.62-.27.18-.12.32-.26.43-.44.11-.2.17-.42.17-.68v-5.37h1.2V196h-1.2v-1.26Zm3.86.24h2.7v-9.06h-2.7v-1.02h3.9v10.08h2.7V196h-6.6v-1.02Zm12.43 1.2c-.56 0-1.06-.1-1.51-.28a3.3 3.3 0 0 1-1.86-2.09 5.15 5.15 0 0 1-.26-1.66c0-.63.09-1.19.26-1.69.18-.5.42-.92.73-1.27a3.1 3.1 0 0 1 1.11-.82c.44-.2.93-.29 1.46-.29.52 0 .99.1 1.4.28a3.4 3.4 0 0 1 1.79 1.98c.16.47.24.97.24 1.52v.57h-5.73v.36c0 .34.06.66.17.95.1.28.26.53.46.75a2.28 2.28 0 0 0 1.74.66c.52 0 .97-.13 1.35-.37.38-.24.67-.56.87-.99l.89.6c-.23.53-.62.96-1.16 1.3-.53.32-1.18.49-1.95.49Zm-.07-7.11a2.3 2.3 0 0 0-1.65.68 2.41 2.41 0 0 0-.65 1.68v.1h4.44v-.16a2.52 2.52 0 0 0-.6-1.66c-.18-.2-.4-.37-.67-.47a2.21 2.21 0 0 0-.87-.17Zm10.8 5.67h-.05a2.5 2.5 0 0 1-2.39 1.44c-.95 0-1.7-.36-2.23-1.06a4.9 4.9 0 0 1-.8-2.99c0-1.28.27-2.28.8-2.98a2.65 2.65 0 0 1 2.23-1.07 2.5 2.5 0 0 1 2.39 1.44h.06v-4.62h1.2V196h-1.2v-1.26Zm-1.97.38c.27 0 .52-.04.76-.11s.45-.17.63-.3c.18-.14.32-.3.42-.5.11-.2.17-.43.17-.69v-2.78c0-.27-.06-.49-.17-.68-.1-.2-.24-.37-.42-.5a1.86 1.86 0 0 0-.63-.31c-.24-.07-.5-.1-.76-.1-.7 0-1.25.21-1.64.64a2.4 2.4 0 0 0-.57 1.68v1.32c0 .7.2 1.27.57 1.7.4.41.94.63 1.64.63Zm5.92-9.59h3.55c.9 0 1.6.25 2.12.73.5.5.76 1.15.76 1.97a2.2 2.2 0 0 1-.47 1.49c-.3.35-.69.61-1.16.76v.05c.58.13 1.07.4 1.45.79.38.38.57.94.57 1.67 0 .41-.07.81-.21 1.18-.14.37-.34.69-.6.96a2.72 2.72 0 0 1-2.01.87h-4v-10.47Zm3.63 9.38c.57 0 1.03-.13 1.36-.4.33-.25.5-.66.5-1.2v-.61c0-.53-.17-.92-.5-1.19a2.1 2.1 0 0 0-1.37-.4h-2.37v3.8h2.38Zm-.21-4.84a2 2 0 0 0 1.24-.34c.3-.24.45-.6.45-1.08v-.59c0-.47-.15-.84-.45-1.07-.3-.25-.72-.37-1.25-.37h-2.16v3.45h2.17Zm8.75 6.11c-.54 0-1.03-.1-1.47-.28a3.18 3.18 0 0 1-1.8-2.09 5.5 5.5 0 0 1-.24-1.68c0-.61.08-1.16.24-1.66.16-.5.39-.93.69-1.28a3.1 3.1 0 0 1 1.1-.82c.45-.2.94-.29 1.48-.29s1.02.1 1.45.28c.44.2.81.47 1.11.83.31.35.55.78.7 1.28.17.5.25 1.05.25 1.66a5.5 5.5 0 0 1-.24 1.68c-.16.49-.4.91-.7 1.28-.3.34-.68.62-1.12.8-.43.2-.91.29-1.45.29Zm0-1.03c.67 0 1.2-.2 1.62-.6.4-.4.61-1.03.61-1.87v-1.1c0-.84-.2-1.47-.61-1.87-.41-.4-.95-.6-1.62-.6-.67 0-1.21.2-1.62.6-.41.4-.62 1.03-.62 1.86v1.12c0 .84.2 1.46.62 1.85.4.4.95.6 1.62.6Zm9 1.03c-.55 0-1.04-.1-1.48-.28a3.18 3.18 0 0 1-1.8-2.09 5.5 5.5 0 0 1-.24-1.68c0-.61.08-1.16.24-1.66.16-.5.4-.93.7-1.28a3.1 3.1 0 0 1 1.1-.82c.44-.2.93-.29 1.47-.29.54 0 1.03.1 1.46.28a3.5 3.5 0 0 1 1.81 2.1c.16.5.24 1.06.24 1.67a5.5 5.5 0 0 1-.24 1.68c-.16.49-.4.91-.7 1.28-.3.34-.67.62-1.11.8-.43.2-.92.29-1.46.29Zm0-1.03c.66 0 1.2-.2 1.61-.6.41-.4.62-1.03.62-1.87v-1.1c0-.84-.2-1.47-.62-1.87-.4-.4-.95-.6-1.62-.6-.67 0-1.2.2-1.62.6-.4.4-.61 1.03-.61 1.86v1.12c0 .84.2 1.46.61 1.85.41.4.95.6 1.62.6Zm6.06-10.25h1.2v7h.06l1.35-1.27 2.58-2.37h1.47l-3.2 3.03 3.58 4.71h-1.49l-3.01-4.02-1.34 1.22v2.8h-1.2v-11.1Zm12.4 1.65c-.35 0-.6-.07-.73-.21a.78.78 0 0 1-.21-.56v-.24c0-.22.07-.4.2-.53.15-.16.4-.23.74-.23.35 0 .6.07.74.22s.2.32.2.54v.25c0 .22-.06.4-.2.55-.14.14-.39.21-.74.21Zm-3.39 8.43h2.8v-5.7h-2.8v-1.02h4v6.72h2.6V196h-6.6v-1.02Zm8.88 1.02v-7.74h1.2v1.26h.06c.08-.19.18-.37.3-.54a1.93 1.93 0 0 1 1.06-.78c.24-.08.52-.12.84-.12.81 0 1.46.26 1.95.78.5.51.74 1.23.74 2.17V196h-1.2v-4.75c0-.72-.16-1.24-.47-1.58-.3-.35-.76-.52-1.36-.52-.24 0-.48.03-.7.09-.24.05-.44.14-.62.26a1.3 1.3 0 0 0-.6 1.13V196h-1.2Zm15.94.88c0 .78-.33 1.36-.98 1.73-.65.38-1.63.57-2.92.57a5.5 5.5 0 0 1-2.7-.5c-.54-.33-.81-.8-.81-1.42 0-.42.1-.75.33-.97.21-.23.52-.4.93-.51v-.19a1.34 1.34 0 0 1-.52-.41 1.1 1.1 0 0 1-.18-.65c0-.4.14-.7.4-.9.26-.2.6-.35 1-.45v-.06a2.52 2.52 0 0 1-1.13-.93 2.63 2.63 0 0 1-.38-1.44c0-.39.06-.75.2-1.08.14-.33.34-.61.6-.84.28-.24.6-.43.97-.56.37-.13.77-.19 1.23-.19.57 0 1.08.1 1.52.31v-.13c0-.3.07-.55.21-.75.15-.2.38-.3.73-.3h1.42v1.05h-1.74v.53a2.45 2.45 0 0 1 .87 1.96c0 .39-.07.75-.23 1.08a2.45 2.45 0 0 1-1.56 1.4 3.69 3.69 0 0 1-1.6.18 4.42 4.42 0 0 1-.36-.05 1.93 1.93 0 0 0-.74.28.94.94 0 0 0-.26.26c-.07.1-.11.22-.11.34 0 .23.12.39.35.47.22.07.52.1.9.1h1.7c1 0 1.73.2 2.18.57.45.38.68.88.68 1.5Zm-1.13.06a.9.9 0 0 0-.38-.75c-.25-.18-.68-.26-1.3-.26h-2.69c-.51.2-.77.56-.77 1.04 0 .34.13.63.4.88s.72.37 1.35.37h1.17c.7 0 1.25-.11 1.64-.33.38-.21.58-.52.58-.94Zm-2.83-4.45c.6 0 1.03-.14 1.31-.42.3-.28.44-.65.44-1.11v-.44c0-.46-.15-.82-.44-1.09-.28-.28-.72-.42-1.31-.42-.6 0-1.05.14-1.33.42-.27.27-.41.63-.41 1.1v.43c0 .46.13.83.41 1.11.29.28.73.42 1.33.42Zm-228.86 64.77h1.06l.89 6.69h.13l1.32-6.69h1.32l1.32 6.69h.14l.88-6.69h1.04l-1.19 7.74h-1.56l-1.23-6.48h-.12l-1.26 6.48h-1.56l-1.18-7.74Zm10.01-3.36h1.2v4.62h.06c.08-.19.18-.37.3-.54a1.93 1.93 0 0 1 1.07-.78c.24-.08.52-.12.84-.12.8 0 1.46.26 1.95.78.49.51.73 1.24.73 2.18V265h-1.2v-4.75c0-.71-.15-1.24-.46-1.58-.31-.35-.77-.53-1.37-.53-.24 0-.47.04-.7.1-.23.06-.44.14-.62.26-.18.13-.32.28-.43.47a1.3 1.3 0 0 0-.17.66V265h-1.2v-11.1Zm12.16 11.28c-.56 0-1.06-.1-1.51-.29a3.3 3.3 0 0 1-1.87-2.08 5.15 5.15 0 0 1-.25-1.67c0-.62.09-1.18.25-1.68.19-.5.43-.92.74-1.27a3.1 3.1 0 0 1 1.11-.82c.44-.2.93-.29 1.46-.29.51 0 .98.1 1.4.29.44.19.8.45 1.1.79.3.33.53.72.69 1.19.16.45.24.96.24 1.51v.57h-5.73v.36c0 .34.06.65.17.94.1.3.26.54.46.75a2.28 2.28 0 0 0 1.74.66c.52 0 .97-.12 1.35-.35.38-.25.67-.58.87-1l.89.6c-.24.53-.62.96-1.16 1.3-.53.32-1.18.49-1.95.49Zm-.07-7.11a2.3 2.3 0 0 0-1.66.68 2.41 2.41 0 0 0-.64 1.68v.1h4.44v-.16a2.52 2.52 0 0 0-.6-1.66c-.18-.2-.4-.36-.67-.47a2.21 2.21 0 0 0-.88-.17Zm5.58 5.91h2.27v-5.7h-2.27v-1.02h3.47v1.95h.07c.16-.61.46-1.08.9-1.42a2.7 2.7 0 0 1 1.71-.53h1.08v1.2h-1.45c-.7 0-1.25.2-1.68.6-.42.4-.63.93-.63 1.57v3.35h3V265h-6.47v-1.02Zm12.48 1.2c-.56 0-1.07-.1-1.52-.29a3.3 3.3 0 0 1-1.86-2.08 5.15 5.15 0 0 1-.25-1.67c0-.62.08-1.18.25-1.68.18-.5.43-.92.74-1.27a3.1 3.1 0 0 1 1.1-.82c.45-.2.93-.29 1.46-.29.52 0 1 .1 1.41.29.43.19.8.45 1.1.79.3.33.53.72.69 1.19.16.45.24.96.24 1.51v.57h-5.73v.36c0 .34.05.65.16.94.11.3.27.54.47.75a2.28 2.28 0 0 0 1.74.66c.52 0 .97-.12 1.35-.35.38-.25.67-.58.87-1l.88.6c-.23.53-.61.96-1.15 1.3-.53.32-1.18.49-1.95.49Zm-.08-7.11a2.3 2.3 0 0 0-1.65.68 2.41 2.41 0 0 0-.64 1.68v.1h4.44v-.16a2.52 2.52 0 0 0-.6-1.66c-.18-.2-.4-.36-.68-.47a2.21 2.21 0 0 0-.87-.17Zm-21.39 28.91h2.26v-5.7h-2.26v-1.02h3.47v1.95h.07c.16-.61.46-1.08.9-1.42a2.7 2.7 0 0 1 1.71-.53h1.08v1.2h-1.45c-.7 0-1.25.2-1.69.6-.42.4-.63.93-.63 1.57v3.35h3V288h-6.46v-1.02Zm12.47 1.2c-.56 0-1.06-.1-1.51-.29a3.3 3.3 0 0 1-1.86-2.08 5.15 5.15 0 0 1-.26-1.67c0-.62.09-1.18.26-1.68.18-.5.42-.92.73-1.27a3.1 3.1 0 0 1 1.11-.82c.44-.2.93-.29 1.46-.29.52 0 .99.1 1.4.29.44.19.8.45 1.1.79.3.33.53.72.7 1.19.15.45.23.96.23 1.51v.57h-5.73v.36c0 .34.06.65.17.94.1.3.26.54.46.75a2.28 2.28 0 0 0 1.74.66c.52 0 .97-.12 1.35-.35.38-.25.67-.58.87-1l.89.6c-.23.53-.62.96-1.16 1.3-.53.32-1.18.49-1.95.49Zm-.07-7.11a2.3 2.3 0 0 0-1.65.68 2.41 2.41 0 0 0-.65 1.68v.1h4.44v-.16a2.52 2.52 0 0 0-.6-1.66c-.18-.2-.4-.36-.67-.47a2.21 2.21 0 0 0-.87-.17Zm5.68 5.91h2.6v-5.7h-2.75v-1.02h2.76v-1.59c0-.52.13-.94.4-1.28.28-.32.72-.49 1.3-.49h2.6v1.02h-3.1v2.34h3.1v1.02h-3.1v5.7h2.76V288h-6.57v-1.02Zm12.38 1.2c-.56 0-1.06-.1-1.51-.29a3.3 3.3 0 0 1-1.86-2.08 5.15 5.15 0 0 1-.26-1.67c0-.62.09-1.18.26-1.68.18-.5.42-.92.73-1.27a3.1 3.1 0 0 1 1.11-.82c.44-.2.93-.29 1.46-.29.52 0 .99.1 1.4.29.44.19.8.45 1.1.79.3.33.53.72.7 1.19.15.45.23.96.23 1.51v.57h-5.73v.36c0 .34.06.65.17.94.1.3.26.54.46.75a2.28 2.28 0 0 0 1.74.66c.52 0 .97-.12 1.35-.35.38-.25.67-.58.87-1l.89.6c-.23.53-.62.96-1.16 1.3-.53.32-1.18.49-1.95.49Zm-.07-7.11a2.3 2.3 0 0 0-1.65.68 2.41 2.41 0 0 0-.65 1.68v.1h4.44v-.16a2.52 2.52 0 0 0-.6-1.66c-.18-.2-.4-.36-.67-.47a2.21 2.21 0 0 0-.87-.17Zm5.59 5.91h2.26v-5.7h-2.26v-1.02h3.46v1.95h.08c.16-.61.46-1.08.9-1.42a2.7 2.7 0 0 1 1.7-.53h1.09v1.2h-1.46c-.69 0-1.25.2-1.68.6-.42.4-.63.93-.63 1.57v3.35h3V288h-6.46v-1.02Zm12.47 1.2c-.56 0-1.06-.1-1.51-.29a3.3 3.3 0 0 1-1.86-2.08 5.15 5.15 0 0 1-.26-1.67c0-.62.09-1.18.26-1.68.18-.5.42-.92.73-1.27a3.1 3.1 0 0 1 1.11-.82c.44-.2.93-.29 1.46-.29.52 0 .99.1 1.4.29.44.19.8.45 1.1.79.3.33.53.72.7 1.19.15.45.23.96.23 1.51v.57h-5.73v.36c0 .34.06.65.17.94.1.3.26.54.46.75a2.28 2.28 0 0 0 1.74.66c.52 0 .97-.12 1.35-.35.38-.25.67-.58.87-1l.89.6c-.23.53-.62.96-1.16 1.3-.53.32-1.18.49-1.95.49Zm-.07-7.11a2.3 2.3 0 0 0-1.65.68 2.41 2.41 0 0 0-.65 1.68v.1h4.44v-.16a2.52 2.52 0 0 0-.6-1.66c-.18-.2-.4-.36-.67-.47a2.21 2.21 0 0 0-.87-.17Zm5.9 6.93v-7.74h1.2v1.26h.06c.08-.19.18-.37.3-.54a1.93 1.93 0 0 1 1.06-.78c.24-.08.52-.12.84-.12.81 0 1.46.26 1.95.78.5.51.74 1.24.74 2.18V288h-1.2v-4.75c0-.71-.16-1.24-.47-1.58-.3-.35-.76-.53-1.36-.53-.24 0-.48.04-.7.1-.23.06-.44.14-.62.26a1.3 1.3 0 0 0-.6 1.13V288h-1.2Zm12.3.18a3.2 3.2 0 0 1-2.6-1.11c-.3-.35-.53-.77-.7-1.27a5.78 5.78 0 0 1 .02-3.34c.16-.5.4-.92.7-1.27.3-.36.66-.63 1.09-.82a3.6 3.6 0 0 1 1.47-.29c.75 0 1.36.17 1.83.5.47.32.81.75 1.03 1.29l-.96.5a1.8 1.8 0 0 0-.7-.93 2.07 2.07 0 0 0-1.2-.32c-.35 0-.67.06-.95.18-.27.1-.5.26-.69.47-.19.22-.33.47-.43.75-.1.3-.14.61-.14.95v1.32c0 .34.05.65.14.94a2 2 0 0 0 1.14 1.25c.28.11.6.16.96.16.52 0 .95-.12 1.29-.35.34-.25.6-.58.8-1l.86.59c-.23.52-.59.95-1.08 1.29a3.2 3.2 0 0 1-1.89.51Zm8.85 0c-.56 0-1.06-.1-1.51-.29a3.3 3.3 0 0 1-1.86-2.08 5.15 5.15 0 0 1-.26-1.67c0-.62.09-1.18.26-1.68.18-.5.42-.92.73-1.27a3.1 3.1 0 0 1 1.11-.82c.44-.2.93-.29 1.46-.29.52 0 .99.1 1.4.29.44.19.8.45 1.1.79.3.33.53.72.7 1.19.15.45.23.96.23 1.51v.57h-5.73v.36c0 .34.06.65.17.94.1.3.26.54.46.75a2.28 2.28 0 0 0 1.74.66c.52 0 .97-.12 1.35-.35.38-.25.67-.58.87-1l.89.6c-.23.53-.62.96-1.16 1.3-.53.32-1.18.49-1.95.49Zm-.07-7.11a2.3 2.3 0 0 0-1.65.68 2.41 2.41 0 0 0-.65 1.68v.1h4.44v-.16a2.52 2.52 0 0 0-.6-1.66c-.18-.2-.4-.36-.67-.47a2.21 2.21 0 0 0-.87-.17Zm6.9-3.54v6.29c0 .5 0 .96.04 1.36.03.4.1.75.24 1.03.13.29.33.5.6.65.28.15.66.22 1.15.22.5 0 .87-.07 1.14-.22.28-.15.49-.37.62-.65s.2-.63.24-1.03c.03-.4.04-.86.04-1.37v-6.28h1.26v5.99c0 .78-.04 1.46-.12 2.04a3.57 3.57 0 0 1-.46 1.45c-.23.39-.57.69-1 .88-.44.2-1 .29-1.72.29a4.4 4.4 0 0 1-1.72-.29c-.43-.2-.77-.49-1-.88a3.9 3.9 0 0 1-.47-1.45c-.07-.58-.1-1.26-.1-2.05v-5.98h1.25Zm11.5 1.02c-.34 0-.59-.07-.73-.21a.78.78 0 0 1-.2-.55v-.25c0-.22.06-.4.2-.54s.39-.22.74-.22.6.08.73.23c.14.13.21.31.21.54v.24c0 .21-.07.4-.2.55-.15.14-.4.21-.74.21Zm-3.38 8.43h2.79v-5.7h-2.8v-1.02h4v6.72h2.6V288h-6.6v-1.02Zm13.78-.24h-.06a2.5 2.5 0 0 1-2.39 1.44c-.95 0-1.7-.36-2.24-1.06a4.9 4.9 0 0 1-.79-2.99c0-1.28.26-2.27.8-2.99a2.65 2.65 0 0 1 2.23-1.06 2.5 2.5 0 0 1 2.38 1.44h.06v-4.62h1.2V288h-1.2v-1.26Zm-1.99.38c.28 0 .53-.04.77-.11s.45-.17.63-.3c.18-.14.32-.3.42-.5.11-.2.16-.42.16-.69v-2.78c0-.26-.05-.49-.16-.68-.1-.2-.24-.37-.42-.5a1.86 1.86 0 0 0-.63-.31c-.24-.07-.5-.1-.77-.1-.7 0-1.24.21-1.63.64a2.4 2.4 0 0 0-.57 1.68v1.32c0 .7.19 1.26.57 1.7.39.41.94.63 1.63.63Zm-116.33 37.43c-.35 0-.6-.07-.74-.21a.78.78 0 0 1-.2-.55v-.25c0-.22.06-.4.2-.54s.39-.22.74-.22.6.08.73.23c.14.13.21.31.21.54v.24c0 .21-.07.4-.2.55-.15.14-.4.21-.74.21Zm-3.4 8.43h2.8v-5.7h-2.8v-1.02h4v6.72h2.6V334h-6.6v-1.02Zm8.88 1.02v-7.74h1.2v1.26h.06c.08-.19.18-.37.3-.54a1.93 1.93 0 0 1 1.07-.78c.24-.08.52-.12.84-.12.8 0 1.46.26 1.95.78.49.51.73 1.24.73 2.18V334h-1.2v-4.75c0-.71-.15-1.24-.46-1.58-.31-.35-.77-.53-1.37-.53-.24 0-.47.04-.7.1-.23.06-.44.14-.62.26-.18.13-.32.28-.43.47a1.3 1.3 0 0 0-.17.66V334h-1.2Zm12.3.18a3.2 3.2 0 0 1-2.6-1.11c-.3-.35-.53-.77-.69-1.27a5.78 5.78 0 0 1 .02-3.34c.16-.5.38-.92.69-1.27.3-.36.66-.63 1.09-.82a3.6 3.6 0 0 1 1.47-.29c.75 0 1.36.17 1.83.5.47.32.81.75 1.03 1.29l-.96.5a1.8 1.8 0 0 0-.7-.93 2.07 2.07 0 0 0-1.2-.32c-.35 0-.66.06-.94.18-.28.1-.5.26-.7.47-.19.22-.33.47-.43.75-.09.3-.14.61-.14.95v1.32c0 .34.05.65.14.94a2 2 0 0 0 1.14 1.25c.28.11.6.16.96.16.52 0 .95-.12 1.29-.35.34-.25.61-.58.81-1l.86.59c-.24.52-.6.95-1.09 1.29a3.2 3.2 0 0 1-1.88.51Zm5.42-1.2h2.7v-9.06h-2.7v-1.02h3.9v10.08h2.7V334h-6.6v-1.02Zm14.12-.24h-.06c-.08.19-.18.38-.3.56a2.1 2.1 0 0 1-1.06.76c-.24.08-.52.12-.84.12-.81 0-1.46-.25-1.95-.76a3.07 3.07 0 0 1-.74-2.2v-4.96h1.2v4.75c0 .72.16 1.25.47 1.6.3.33.76.5 1.36.5.24 0 .48-.03.7-.09.24-.06.44-.14.62-.26.18-.13.33-.27.44-.45.1-.2.16-.42.16-.68v-5.37h1.2V334h-1.2v-1.26Zm9.04 0h-.06a2.5 2.5 0 0 1-2.38 1.44c-.95 0-1.7-.36-2.24-1.06a4.9 4.9 0 0 1-.8-2.99c0-1.28.27-2.27.8-2.99a2.65 2.65 0 0 1 2.24-1.06 2.5 2.5 0 0 1 2.38 1.44h.06v-4.62h1.2V334h-1.2v-1.26Zm-1.98.38c.27 0 .53-.04.77-.11s.45-.17.63-.3c.18-.14.32-.3.42-.5.1-.2.16-.42.16-.69v-2.78c0-.26-.05-.49-.16-.68-.1-.2-.24-.37-.42-.5a1.86 1.86 0 0 0-.63-.31c-.24-.07-.5-.1-.77-.1-.7 0-1.24.21-1.63.64a2.4 2.4 0 0 0-.57 1.68v1.32c0 .7.19 1.26.57 1.7.39.41.93.63 1.63.63Zm9.24 1.06c-.56 0-1.07-.1-1.52-.29a3.3 3.3 0 0 1-1.86-2.08 5.15 5.15 0 0 1-.25-1.67c0-.62.08-1.18.25-1.68.18-.5.43-.92.74-1.27a3.1 3.1 0 0 1 1.1-.82c.45-.2.93-.29 1.46-.29.52 0 1 .1 1.41.29.43.19.8.45 1.1.79.3.33.53.72.69 1.19.16.45.24.96.24 1.51v.57h-5.73v.36c0 .34.05.65.16.94.11.3.27.54.47.75a2.28 2.28 0 0 0 1.74.66c.52 0 .97-.12 1.35-.35.38-.25.67-.58.87-1l.88.6c-.23.53-.61.96-1.15 1.3-.53.32-1.18.49-1.95.49Zm-.08-7.11a2.3 2.3 0 0 0-1.65.68 2.41 2.41 0 0 0-.64 1.68v.1h4.44v-.16a2.52 2.52 0 0 0-.6-1.66c-.18-.2-.4-.36-.68-.47a2.21 2.21 0 0 0-.87-.17ZM143.4 345.9h1.2v4.62h.06a2.5 2.5 0 0 1 2.38-1.44c.96 0 1.7.36 2.22 1.06.54.72.81 1.71.81 2.99 0 1.28-.27 2.27-.8 2.99a2.61 2.61 0 0 1-2.22 1.06 2.5 2.5 0 0 1-2.39-1.44h-.06V357h-1.2v-11.1Zm3.18 10.22c.7 0 1.24-.22 1.62-.63.39-.44.59-1 .59-1.7v-1.32c0-.7-.2-1.26-.59-1.68a2.05 2.05 0 0 0-1.62-.65c-.27 0-.53.04-.76.11-.25.07-.46.18-.63.31-.19.13-.33.3-.44.5-.1.19-.15.42-.15.68v2.78c0 .27.05.5.15.7a1.7 1.7 0 0 0 1.06.79c.24.07.5.1.77.1Zm8.89 1.06c-.54 0-1.03-.1-1.47-.29a3.18 3.18 0 0 1-1.8-2.08 5.5 5.5 0 0 1-.24-1.68c0-.61.08-1.17.24-1.67.16-.5.39-.92.69-1.27a3.1 3.1 0 0 1 1.1-.82c.45-.2.94-.29 1.48-.29s1.02.1 1.45.29c.44.19.81.46 1.11.82.31.35.55.77.7 1.27.17.5.25 1.06.25 1.67a5.5 5.5 0 0 1-.24 1.68c-.16.49-.4.92-.7 1.27-.3.36-.68.63-1.12.81-.43.2-.91.29-1.45.29Zm0-1.04c.67 0 1.2-.2 1.62-.6.4-.4.61-1.02.61-1.86v-1.1c0-.84-.2-1.46-.61-1.87-.41-.4-.95-.6-1.62-.6-.67 0-1.21.2-1.62.6-.41.4-.62 1.03-.62 1.87v1.1c0 .84.2 1.46.62 1.87.4.4.95.6 1.62.6Zm9 1.04c-.55 0-1.04-.1-1.48-.29a3.18 3.18 0 0 1-1.8-2.08 5.5 5.5 0 0 1-.24-1.68c0-.61.08-1.17.24-1.67.16-.5.4-.92.7-1.27a3.1 3.1 0 0 1 1.1-.82c.44-.2.93-.29 1.47-.29.54 0 1.03.1 1.46.29.44.19.8.46 1.1.82.32.35.55.77.71 1.27.16.5.24 1.06.24 1.67a5.5 5.5 0 0 1-.24 1.68c-.16.49-.4.92-.7 1.27-.3.36-.67.63-1.11.81-.43.2-.92.29-1.46.29Zm0-1.04c.66 0 1.2-.2 1.61-.6.41-.4.62-1.02.62-1.86v-1.1c0-.84-.2-1.46-.62-1.87-.4-.4-.95-.6-1.62-.6-.67 0-1.2.2-1.62.6-.4.4-.61 1.03-.61 1.87v1.1c0 .84.2 1.46.61 1.87.41.4.95.6 1.62.6Zm6.06-10.24h1.2v7h.06l1.35-1.27 2.58-2.37h1.47l-3.2 3.03 3.58 4.71h-1.49l-3.01-4.02-1.34 1.21V357h-1.2v-11.1Zm12.4 1.65c-.35 0-.6-.07-.73-.21a.78.78 0 0 1-.21-.55v-.25c0-.22.07-.4.2-.54.15-.14.4-.22.74-.22.35 0 .6.08.74.23.14.13.2.31.2.54v.24c0 .21-.06.4-.2.55-.14.14-.39.21-.74.21Zm-3.39 8.43h2.8v-5.7h-2.8v-1.02h4v6.72h2.6V357h-6.6v-1.02Zm8.88 1.02v-7.74h1.2v1.26h.06c.08-.19.18-.37.3-.54a1.93 1.93 0 0 1 1.06-.78c.24-.08.52-.12.84-.12.81 0 1.46.26 1.95.78.5.51.74 1.24.74 2.18V357h-1.2v-4.75c0-.71-.16-1.24-.47-1.58-.3-.35-.76-.53-1.36-.53-.24 0-.48.04-.7.1-.24.06-.44.14-.62.26a1.3 1.3 0 0 0-.6 1.13V357h-1.2Zm15.94.88c0 .79-.33 1.36-.98 1.73-.65.38-1.63.57-2.93.57a5.5 5.5 0 0 1-2.7-.5c-.53-.32-.8-.8-.8-1.42 0-.42.1-.75.32-.97.23-.24.53-.4.94-.52v-.17a1.34 1.34 0 0 1-.51-.43 1.1 1.1 0 0 1-.19-.64c0-.4.13-.7.4-.9.26-.2.6-.35 1-.45v-.06a2.52 2.52 0 0 1-1.13-.93 2.63 2.63 0 0 1-.39-1.44c0-.39.08-.75.22-1.08.14-.33.34-.61.6-.84.27-.24.59-.43.96-.56.37-.13.78-.19 1.22-.19.59 0 1.1.1 1.53.31v-.13c0-.3.08-.55.22-.75.13-.2.38-.3.72-.3h1.42v1.05h-1.74v.53a2.45 2.45 0 0 1 .87 1.96c0 .39-.08.75-.22 1.08a2.45 2.45 0 0 1-1.56 1.4 3.69 3.69 0 0 1-1.61.17 4.42 4.42 0 0 1-.36-.04 1.93 1.93 0 0 0-.74.28.94.94 0 0 0-.26.26c-.08.1-.11.22-.11.35 0 .23.12.38.34.46.24.07.53.1.9.1h1.72c1 0 1.72.2 2.17.57.45.38.68.88.68 1.5Zm-1.13.06a.9.9 0 0 0-.38-.75c-.25-.18-.68-.26-1.3-.26h-2.69c-.51.2-.78.56-.78 1.05 0 .33.14.63.41.87.27.25.72.37 1.35.37H201c.7 0 1.25-.11 1.63-.33.4-.21.59-.52.59-.94Zm-2.84-4.45c.6 0 1.05-.14 1.33-.42.28-.28.43-.65.43-1.11v-.44c0-.45-.14-.82-.43-1.09-.28-.28-.72-.42-1.33-.42-.6 0-1.03.14-1.31.42-.28.27-.42.63-.42 1.1v.43c0 .46.13.83.41 1.11.28.28.72.42 1.32.42Zm-52.04 25.25h-.06a2.5 2.5 0 0 1-2.38 1.44c-.96 0-1.7-.36-2.24-1.06a4.9 4.9 0 0 1-.8-2.99c0-1.28.27-2.27.8-2.99a2.65 2.65 0 0 1 2.24-1.06 2.5 2.5 0 0 1 2.38 1.44h.06v-1.26h1.2V380h-1.2v-1.26Zm-1.98.38c.27 0 .52-.04.76-.11.25-.07.45-.17.63-.3.19-.14.32-.3.43-.5.1-.2.16-.42.16-.69v-2.78c0-.26-.06-.49-.16-.68-.1-.2-.25-.37-.43-.5a1.86 1.86 0 0 0-.63-.31c-.24-.07-.49-.1-.76-.1-.7 0-1.25.21-1.64.64a2.4 2.4 0 0 0-.56 1.68v1.32c0 .7.19 1.26.56 1.7.4.41.94.63 1.64.63Zm9.47.88c-.59 0-1.02-.17-1.3-.5-.27-.32-.4-.75-.4-1.27v-4.95h-2.59v-1.02h1.92c.26 0 .44-.05.54-.15.11-.11.17-.3.17-.56v-2.02h1.15v2.73h3.53v1.02h-3.53v5.7h3.53V380h-3.02Zm9 0c-.6 0-1.03-.17-1.3-.5-.28-.32-.41-.75-.41-1.27v-4.95h-2.58v-1.02h1.92c.26 0 .44-.05.54-.15.1-.11.16-.3.16-.56v-2.02h1.16v2.73h3.52v1.02h-3.52v5.7h3.52V380h-3.01Zm8.75.18c-.56 0-1.06-.1-1.51-.29a3.3 3.3 0 0 1-1.86-2.08 5.15 5.15 0 0 1-.26-1.67c0-.62.09-1.18.26-1.68.18-.5.42-.92.73-1.27a3.1 3.1 0 0 1 1.11-.82c.44-.2.93-.29 1.46-.29.52 0 .99.1 1.4.29.44.19.8.45 1.1.79.3.33.53.72.7 1.19.15.45.23.96.23 1.51v.57h-5.73v.36c0 .34.06.65.17.94.1.3.26.54.46.75a2.28 2.28 0 0 0 1.74.66c.52 0 .97-.12 1.35-.35.38-.25.67-.58.87-1l.89.6c-.23.53-.62.96-1.16 1.3-.53.32-1.18.49-1.95.49Zm-.07-7.11a2.3 2.3 0 0 0-1.65.68 2.41 2.41 0 0 0-.65 1.68v.1h4.44v-.16a2.52 2.52 0 0 0-.6-1.66c-.18-.2-.4-.36-.67-.47a2.21 2.21 0 0 0-.87-.17Zm5.9 6.93v-7.74h1.2v1.26h.06c.08-.19.18-.37.3-.54a1.93 1.93 0 0 1 1.07-.78c.24-.08.52-.12.84-.12.8 0 1.46.26 1.95.78.49.51.73 1.24.73 2.18V380h-1.2v-4.75c0-.71-.15-1.24-.46-1.58-.31-.35-.77-.53-1.37-.53-.24 0-.47.04-.7.1-.23.06-.44.14-.62.26-.18.13-.32.28-.43.47a1.3 1.3 0 0 0-.17.66V380h-1.2Zm13.9-1.26h-.06a2.5 2.5 0 0 1-2.38 1.44c-.95 0-1.7-.36-2.24-1.06a4.9 4.9 0 0 1-.8-2.99c0-1.28.27-2.27.8-2.99a2.65 2.65 0 0 1 2.24-1.06 2.5 2.5 0 0 1 2.38 1.44h.06v-4.62h1.2V380h-1.2v-1.26Zm-1.98.38c.27 0 .53-.04.77-.11s.45-.17.63-.3c.18-.14.32-.3.42-.5.1-.2.16-.42.16-.69v-2.78c0-.26-.05-.49-.16-.68-.1-.2-.24-.37-.42-.5a1.86 1.86 0 0 0-.63-.31c-.24-.07-.5-.1-.77-.1-.7 0-1.24.21-1.63.64a2.4 2.4 0 0 0-.57 1.68v1.32c0 .7.19 1.26.57 1.7.39.41.93.63 1.63.63Zm9.23 1.06c-.56 0-1.06-.1-1.51-.29a3.3 3.3 0 0 1-1.86-2.08 5.15 5.15 0 0 1-.25-1.67c0-.62.08-1.18.25-1.68.18-.5.43-.92.74-1.27a3.1 3.1 0 0 1 1.1-.82c.44-.2.93-.29 1.46-.29.52 0 .99.1 1.41.29.43.19.8.45 1.1.79.3.33.53.72.69 1.19.16.45.24.96.24 1.51v.57h-5.74v.36c0 .34.06.65.17.94.11.3.26.54.46.75a2.28 2.28 0 0 0 1.75.66c.52 0 .97-.12 1.34-.35.38-.25.68-.58.88-1l.88.6c-.23.53-.61.96-1.16 1.3-.52.32-1.17.49-1.94.49Zm-.07-7.11a2.3 2.3 0 0 0-1.65.68 2.41 2.41 0 0 0-.65 1.68v.1h4.44v-.16a2.52 2.52 0 0 0-.6-1.66c-.18-.2-.4-.36-.67-.47a2.21 2.21 0 0 0-.87-.17Zm9.07 7.11c-.56 0-1.07-.1-1.52-.29a3.3 3.3 0 0 1-1.86-2.08 5.15 5.15 0 0 1-.25-1.67c0-.62.08-1.18.25-1.68.18-.5.43-.92.74-1.27a3.1 3.1 0 0 1 1.1-.82c.45-.2.93-.29 1.46-.29.52 0 1 .1 1.41.29.43.19.8.45 1.1.79.3.33.53.72.69 1.19.16.45.24.96.24 1.51v.57h-5.73v.36c0 .34.05.65.16.94.11.3.27.54.47.75a2.28 2.28 0 0 0 1.74.66c.52 0 .97-.12 1.35-.35.38-.25.67-.58.87-1l.88.6c-.23.53-.61.96-1.15 1.3-.53.32-1.18.49-1.95.49Zm-.08-7.11a2.3 2.3 0 0 0-1.65.68 2.41 2.41 0 0 0-.64 1.68v.1h4.44v-.16a2.52 2.52 0 0 0-.6-1.66c-.18-.2-.4-.36-.68-.47a2.21 2.21 0 0 0-.87-.17Z" fill="#4DB29A"/><path d="M377.13 185.53h3.56c.9 0 1.6.25 2.11.73.51.5.77 1.15.77 1.97a2.2 2.2 0 0 1-.47 1.49c-.3.35-.69.61-1.17.76v.05c.6.13 1.08.4 1.46.79.38.38.57.94.57 1.67 0 .41-.07.81-.21 1.18-.14.37-.34.69-.6.96a2.72 2.72 0 0 1-2.01.87h-4v-10.47Zm3.63 9.38c.58 0 1.04-.13 1.37-.4.33-.25.5-.66.5-1.2v-.61c0-.53-.17-.92-.5-1.19a2.1 2.1 0 0 0-1.37-.4h-2.37v3.8h2.37Zm-.2-4.84a2 2 0 0 0 1.24-.34c.3-.24.45-.6.45-1.08v-.59c0-.47-.15-.84-.45-1.07-.3-.25-.72-.37-1.25-.37h-2.16v3.45h2.16Zm8.75 6.11c-.54 0-1.03-.1-1.47-.28a3.18 3.18 0 0 1-1.8-2.09 5.5 5.5 0 0 1-.24-1.68c0-.61.08-1.16.24-1.66.16-.5.39-.93.69-1.28a3.1 3.1 0 0 1 1.1-.82c.45-.2.94-.29 1.48-.29s1.02.1 1.45.28c.44.2.81.47 1.11.83.31.35.55.78.7 1.28.17.5.25 1.05.25 1.66a5.5 5.5 0 0 1-.24 1.68c-.16.49-.4.91-.7 1.28-.3.34-.68.62-1.12.8-.43.2-.91.29-1.45.29Zm0-1.03c.67 0 1.2-.2 1.62-.6.4-.4.61-1.03.61-1.87v-1.1c0-.84-.2-1.47-.61-1.87-.41-.4-.95-.6-1.62-.6-.67 0-1.21.2-1.62.6-.41.4-.62 1.03-.62 1.86v1.12c0 .84.2 1.46.62 1.85.4.4.95.6 1.62.6Zm9 1.03c-.55 0-1.04-.1-1.48-.28a3.18 3.18 0 0 1-1.8-2.09 5.5 5.5 0 0 1-.24-1.68c0-.61.08-1.16.24-1.66.16-.5.4-.93.7-1.28a3.1 3.1 0 0 1 1.1-.82c.44-.2.93-.29 1.47-.29.54 0 1.03.1 1.46.28a3.5 3.5 0 0 1 1.82 2.1c.15.5.23 1.06.23 1.67a5.5 5.5 0 0 1-.24 1.68c-.16.49-.4.91-.7 1.28-.3.34-.67.62-1.11.8-.43.2-.92.29-1.46.29Zm0-1.03c.66 0 1.2-.2 1.61-.6.41-.4.62-1.03.62-1.87v-1.1c0-.84-.2-1.47-.62-1.87-.4-.4-.95-.6-1.62-.6-.67 0-1.2.2-1.62.6-.4.4-.61 1.03-.61 1.86v1.12c0 .84.2 1.46.61 1.85.41.4.95.6 1.62.6Zm6.06-10.25h1.2v7h.06l1.35-1.27 2.58-2.37h1.47l-3.21 3.03 3.58 4.71h-1.48l-3.02-4.02-1.33 1.22v2.8h-1.2v-11.1Zm12.4 1.65c-.35 0-.6-.07-.74-.21a.78.78 0 0 1-.2-.56v-.24c0-.22.06-.4.2-.53.14-.16.39-.23.74-.23s.6.07.73.22c.14.15.21.32.21.54v.25c0 .22-.07.4-.2.55-.15.14-.4.21-.74.21Zm-3.4 8.43h2.8v-5.7h-2.8v-1.02h4v6.72h2.6V196h-6.6v-1.02Zm8.88 1.02v-7.74h1.2v1.26h.06c.08-.19.18-.37.3-.54a1.93 1.93 0 0 1 1.07-.78c.24-.08.52-.12.84-.12.8 0 1.46.26 1.95.78.49.51.73 1.23.73 2.17V196h-1.2v-4.75c0-.72-.15-1.24-.46-1.58-.31-.35-.77-.52-1.37-.52-.24 0-.47.03-.7.09-.23.05-.44.14-.62.26-.18.13-.32.28-.43.47a1.3 1.3 0 0 0-.17.66V196h-1.2Zm15.94.88c0 .78-.32 1.36-.97 1.73-.65.38-1.63.57-2.93.57a5.5 5.5 0 0 1-2.7-.5c-.54-.33-.8-.8-.8-1.42 0-.42.1-.75.32-.97.22-.23.53-.4.93-.51v-.19a1.34 1.34 0 0 1-.5-.41 1.1 1.1 0 0 1-.19-.65c0-.4.13-.7.4-.9.26-.2.6-.35 1-.45v-.06a2.52 2.52 0 0 1-1.13-.93 2.63 2.63 0 0 1-.39-1.44c0-.39.07-.75.21-1.08.14-.33.34-.61.6-.84.27-.24.6-.43.96-.56.37-.13.78-.19 1.23-.19.58 0 1.1.1 1.53.31v-.13c0-.3.07-.55.21-.75.14-.2.38-.3.72-.3h1.43v1.05h-1.74v.53a2.45 2.45 0 0 1 .87 1.96c0 .39-.08.75-.23 1.08a2.45 2.45 0 0 1-1.56 1.4 3.69 3.69 0 0 1-1.6.18 4.42 4.42 0 0 1-.36-.05 1.93 1.93 0 0 0-.74.28.94.94 0 0 0-.27.26c-.07.1-.1.22-.1.34 0 .23.11.39.34.47.23.07.53.1.9.1h1.71c1 0 1.73.2 2.18.57.45.38.67.88.67 1.5Zm-1.12.06a.9.9 0 0 0-.38-.75c-.25-.18-.68-.26-1.3-.26h-2.69c-.52.2-.78.56-.78 1.04 0 .34.14.63.4.88.28.25.73.37 1.36.37h1.17c.7 0 1.24-.11 1.63-.33.4-.21.59-.52.59-.94Zm-2.84-4.45c.6 0 1.04-.14 1.32-.42.3-.28.44-.65.44-1.11v-.44c0-.46-.15-.82-.44-1.09-.28-.28-.72-.42-1.32-.42-.6 0-1.04.14-1.32.42-.28.27-.42.63-.42 1.1v.43c0 .46.14.83.42 1.11.28.28.72.42 1.32.42Zm9.67-5.87V196h-1.26v-9.38h-3.5v-1.09h8.26v1.1h-3.5Zm10.87 1.64h1.2l-3.84 9.44c-.09.22-.19.4-.3.56a1.48 1.48 0 0 1-.93.65c-.2.06-.46.09-.75.09h-1.14v-1.02h1.8l.87-2.13-3.12-7.59h1.23l1.3 3.24 1.16 2.94h.06l1.16-2.94 1.3-3.24Zm3.42 0h1.2v1.26h.06a2.5 2.5 0 0 1 2.38-1.44c.95 0 1.69.35 2.22 1.06.54.72.81 1.71.81 2.99 0 1.28-.27 2.28-.81 2.99a2.61 2.61 0 0 1-2.22 1.06 2.5 2.5 0 0 1-2.38-1.44h-.06V199h-1.2v-10.74Zm3.18 6.86c.7 0 1.24-.22 1.62-.63.38-.44.58-1 .58-1.7v-1.32c0-.7-.2-1.26-.58-1.68a2.05 2.05 0 0 0-1.63-.64c-.26 0-.52.03-.76.1s-.45.18-.63.31-.33.3-.44.5c-.1.19-.14.41-.14.68v2.78c0 .26.05.5.15.7a1.7 1.7 0 0 0 1.06.79c.24.07.5.1.76.1Zm9.02 1.06c-.56 0-1.07-.1-1.52-.28a3.3 3.3 0 0 1-1.86-2.09 5.15 5.15 0 0 1-.25-1.66c0-.63.08-1.19.25-1.69.18-.5.43-.92.74-1.27a3.1 3.1 0 0 1 1.1-.82c.45-.2.93-.29 1.46-.29.52 0 1 .1 1.41.28a3.4 3.4 0 0 1 1.79 1.98c.16.47.24.97.24 1.52v.57h-5.73v.36c0 .34.05.66.16.95.11.28.27.53.47.75a2.28 2.28 0 0 0 1.74.66c.52 0 .97-.13 1.35-.37.38-.24.67-.56.87-.99l.88.6c-.23.53-.61.96-1.15 1.3-.53.32-1.18.49-1.95.49Zm-.08-7.11a2.3 2.3 0 0 0-1.65.68 2.41 2.41 0 0 0-.64 1.68v.1h4.44v-.16a2.52 2.52 0 0 0-.6-1.66c-.18-.2-.4-.37-.68-.47a2.21 2.21 0 0 0-.87-.17Zm-345.18 28.91h2.27v-5.7h-2.27v-1.02h3.47v1.95h.07c.16-.61.46-1.09.9-1.43a2.7 2.7 0 0 1 1.71-.52h1.08v1.2h-1.45c-.7 0-1.25.2-1.68.6-.42.4-.63.93-.63 1.57v3.35h3V219h-6.47v-1.02Zm12.48 1.2c-.56 0-1.07-.1-1.52-.28a3.3 3.3 0 0 1-1.86-2.09 5.15 5.15 0 0 1-.25-1.66c0-.63.08-1.19.25-1.69.18-.5.43-.92.74-1.27a3.1 3.1 0 0 1 1.1-.82c.45-.2.93-.29 1.46-.29.52 0 1 .1 1.41.28a3.4 3.4 0 0 1 1.78 1.98c.17.47.25.97.25 1.52v.57h-5.73v.36c0 .34.05.66.16.95.11.28.27.53.47.75a2.28 2.28 0 0 0 1.74.66c.52 0 .97-.13 1.35-.37.38-.24.67-.56.87-.99l.88.6c-.23.53-.61.96-1.15 1.3-.53.32-1.18.49-1.95.49Zm-.08-7.11a2.3 2.3 0 0 0-1.65.68 2.41 2.41 0 0 0-.64 1.68v.1h4.44v-.16a2.52 2.52 0 0 0-.6-1.66c-.18-.2-.4-.37-.68-.47a2.21 2.21 0 0 0-.87-.17Zm9.03 7.11c-.81 0-1.52-.14-2.1-.4a4.7 4.7 0 0 1-1.49-1.12l.81-.7a3.67 3.67 0 0 0 2.8 1.22c.6 0 1.1-.11 1.47-.32.4-.22.59-.56.59-1.02 0-.2-.04-.37-.12-.5a.8.8 0 0 0-.3-.33 3.8 3.8 0 0 0-.94-.3l-1.22-.18c-.27-.03-.56-.09-.88-.16-.31-.07-.6-.18-.86-.33a2.2 2.2 0 0 1-.66-.63c-.17-.26-.25-.6-.25-1.02 0-.39.07-.72.22-1 .16-.3.38-.53.66-.72.28-.2.61-.35.99-.44.38-.1.8-.15 1.25-.15.7 0 1.3.11 1.81.33.52.22.97.53 1.34.91l-.78.74a2.2 2.2 0 0 0-.35-.33c-.13-.12-.3-.22-.5-.31a2.8 2.8 0 0 0-.67-.24 4.03 4.03 0 0 0-.9-.1c-.61 0-1.08.11-1.41.32-.32.21-.48.51-.48.91 0 .2.03.38.1.51.09.14.19.24.32.32.13.08.28.15.44.2l.5.1 1.22.18c.28.04.58.1.89.16.3.07.59.19.85.35.26.15.47.36.65.62.18.25.26.6.26 1.01 0 .78-.3 1.37-.9 1.79a4 4 0 0 1-2.36.63Zm9.17 0c-.56 0-1.06-.1-1.5-.28a3.2 3.2 0 0 1-1.1-.83c-.3-.35-.53-.78-.69-1.28a5.78 5.78 0 0 1 .02-3.32c.16-.5.39-.93.69-1.28.3-.36.66-.63 1.1-.82a3.6 3.6 0 0 1 1.46-.29c.75 0 1.36.16 1.83.5.47.32.82.75 1.04 1.28l-.96.51a1.8 1.8 0 0 0-.7-.93 2.07 2.07 0 0 0-1.2-.32c-.36 0-.67.06-.95.17-.27.12-.5.28-.7.49-.18.2-.33.46-.43.75-.09.28-.13.6-.13.94v1.32c0 .34.04.66.13.95a2 2 0 0 0 1.14 1.24c.28.11.6.16.96.16.52 0 .95-.11 1.3-.35.33-.25.6-.57.8-1l.86.59c-.23.52-.6.95-1.08 1.29a3.2 3.2 0 0 1-1.9.51Zm5.7-11.28h1.2v4.62h.05c.08-.19.18-.37.3-.54a1.93 1.93 0 0 1 1.07-.78c.24-.08.52-.12.84-.12.8 0 1.46.26 1.95.78.49.51.73 1.23.73 2.17V219h-1.2v-4.75c0-.72-.15-1.24-.46-1.58-.31-.35-.77-.52-1.37-.52-.24 0-.47.03-.7.09-.23.05-.44.14-.62.26-.18.13-.32.28-.43.47a1.3 1.3 0 0 0-.17.66V219h-1.2v-11.1Zm12.15 11.28c-.56 0-1.06-.1-1.51-.28a3.3 3.3 0 0 1-1.86-2.09 5.15 5.15 0 0 1-.26-1.66c0-.63.09-1.19.26-1.69.18-.5.42-.92.73-1.27a3.1 3.1 0 0 1 1.11-.82c.44-.2.93-.29 1.46-.29.52 0 .99.1 1.4.28a3.4 3.4 0 0 1 1.78 1.98c.17.47.25.97.25 1.52v.57h-5.73v.36c0 .34.06.66.17.95.1.28.26.53.46.75a2.28 2.28 0 0 0 1.74.66c.52 0 .97-.13 1.35-.37.38-.24.67-.56.87-.99l.89.6c-.23.53-.62.96-1.16 1.3-.53.32-1.18.49-1.95.49Zm-.07-7.11a2.3 2.3 0 0 0-1.65.68 2.41 2.41 0 0 0-.65 1.68v.1h4.44v-.16a2.52 2.52 0 0 0-.6-1.66c-.18-.2-.4-.37-.67-.47a2.21 2.21 0 0 0-.87-.17Zm10.8 5.67h-.05a2.5 2.5 0 0 1-2.39 1.44c-.95 0-1.7-.36-2.23-1.06a4.9 4.9 0 0 1-.8-2.99c0-1.28.27-2.28.8-2.98a2.65 2.65 0 0 1 2.23-1.07 2.5 2.5 0 0 1 2.39 1.44h.06v-4.62h1.2V219h-1.2v-1.26Zm-1.97.38c.27 0 .52-.04.76-.11s.45-.17.63-.3c.18-.14.32-.3.42-.5.11-.2.17-.43.17-.69v-2.78c0-.27-.06-.49-.17-.68-.1-.2-.24-.37-.42-.5a1.86 1.86 0 0 0-.63-.31c-.24-.07-.5-.1-.76-.1-.7 0-1.25.21-1.64.64a2.4 2.4 0 0 0-.57 1.68v1.32c0 .7.2 1.27.57 1.7.4.41.94.63 1.64.63Zm10.93-.38h-.06c-.08.19-.18.38-.3.55a2.1 2.1 0 0 1-1.06.77c-.25.08-.53.12-.85.12-.8 0-1.46-.25-1.95-.77a3.07 3.07 0 0 1-.73-2.19v-4.96h1.2v4.75c0 .72.15 1.25.46 1.6.31.33.77.5 1.37.5.24 0 .47-.03.7-.09.23-.06.44-.15.62-.27.18-.12.32-.26.43-.44.11-.2.17-.42.17-.68v-5.37h1.2V219h-1.2v-1.26Zm3.86.24h2.7v-9.06h-2.7v-1.02h3.9v10.08h2.7V219h-6.6v-1.02Zm12.43 1.2c-.56 0-1.07-.1-1.52-.28a3.3 3.3 0 0 1-1.86-2.09 5.15 5.15 0 0 1-.25-1.66c0-.63.08-1.19.25-1.69.18-.5.43-.92.74-1.27a3.1 3.1 0 0 1 1.1-.82c.45-.2.93-.29 1.46-.29.52 0 1 .1 1.41.28a3.4 3.4 0 0 1 1.78 1.98c.17.47.25.97.25 1.52v.57h-5.73v.36c0 .34.05.66.16.95.11.28.27.53.47.75a2.28 2.28 0 0 0 1.74.66c.52 0 .97-.13 1.35-.37.38-.24.67-.56.87-.99l.88.6c-.23.53-.61.96-1.15 1.3-.53.32-1.18.49-1.95.49Zm-.08-7.11a2.3 2.3 0 0 0-1.65.68 2.41 2.41 0 0 0-.64 1.68v.1h4.44v-.16a2.52 2.52 0 0 0-.6-1.66c-.18-.2-.4-.37-.68-.47a2.21 2.21 0 0 0-.87-.17Zm6.9-3.54v6.28c0 .51.01.97.04 1.37.03.4.11.75.24 1.03s.33.5.6.65c.28.15.67.22 1.16.22.49 0 .87-.07 1.14-.22.28-.15.48-.37.61-.65s.21-.63.24-1.03.05-.86.05-1.37v-6.28h1.26v5.98c0 .78-.04 1.47-.12 2.05a3.57 3.57 0 0 1-.47 1.45c-.23.39-.56.69-1 .89-.43.19-1 .28-1.71.28a4.4 4.4 0 0 1-1.73-.28c-.43-.2-.76-.5-1-.89a3.9 3.9 0 0 1-.47-1.45c-.07-.59-.1-1.27-.1-2.05v-5.98h1.26Zm11.51 1.02c-.35 0-.6-.07-.73-.21a.78.78 0 0 1-.21-.56v-.24c0-.22.07-.4.2-.53.15-.16.4-.23.74-.23.35 0 .6.07.74.22s.2.32.2.54v.25c0 .22-.06.4-.2.55-.14.14-.39.21-.74.21Zm-3.39 8.43h2.8v-5.7h-2.8v-1.02h4v6.72h2.6V219h-6.6v-1.02Zm13.78-.24h-.06a2.5 2.5 0 0 1-2.38 1.44c-.95 0-1.7-.36-2.24-1.06a4.9 4.9 0 0 1-.8-2.99c0-1.28.27-2.28.8-2.98a2.65 2.65 0 0 1 2.24-1.07 2.5 2.5 0 0 1 2.38 1.44h.06v-4.62h1.2V219h-1.2v-1.26Zm-1.98.38c.27 0 .53-.04.77-.11s.45-.17.63-.3c.18-.14.32-.3.42-.5.1-.2.16-.43.16-.69v-2.78c0-.27-.05-.49-.16-.68-.1-.2-.24-.37-.42-.5a1.86 1.86 0 0 0-.63-.31c-.24-.07-.5-.1-.77-.1-.7 0-1.24.21-1.63.64a2.4 2.4 0 0 0-.57 1.68v1.32c0 .7.19 1.27.57 1.7.39.41.93.63 1.63.63ZM107.41 230.9h1.2v4.62h.06a2.5 2.5 0 0 1 2.39-1.44c.95 0 1.69.35 2.22 1.06.54.72.8 1.71.8 2.99 0 1.28-.26 2.28-.8 2.99a2.61 2.61 0 0 1-2.22 1.06 2.5 2.5 0 0 1-2.39-1.44h-.06V242h-1.2v-11.1Zm3.18 10.22c.7 0 1.24-.22 1.62-.63.4-.44.59-1 .59-1.7v-1.32c0-.7-.2-1.26-.59-1.68a2.05 2.05 0 0 0-1.62-.64c-.27 0-.52.03-.76.1s-.45.18-.63.31-.33.3-.44.5c-.1.19-.15.41-.15.68v2.78c0 .26.05.5.15.7a1.7 1.7 0 0 0 1.07.79c.24.07.5.1.76.1Zm8.9 1.06c-.55 0-1.04-.1-1.48-.28a3.18 3.18 0 0 1-1.8-2.09 5.5 5.5 0 0 1-.24-1.68c0-.61.08-1.16.24-1.66.16-.5.4-.93.7-1.28a3.1 3.1 0 0 1 1.1-.82c.44-.2.93-.29 1.47-.29.54 0 1.03.1 1.46.28a3.5 3.5 0 0 1 1.81 2.1c.16.5.24 1.06.24 1.67a5.5 5.5 0 0 1-.24 1.68c-.16.49-.4.91-.7 1.28-.3.34-.67.62-1.11.8-.43.2-.92.29-1.46.29Zm0-1.03c.66 0 1.2-.2 1.61-.6.41-.4.62-1.03.62-1.87v-1.1c0-.84-.2-1.47-.62-1.87-.4-.4-.95-.6-1.62-.6-.67 0-1.2.2-1.62.6-.4.4-.61 1.03-.61 1.86v1.12c0 .84.2 1.46.61 1.85.41.4.95.6 1.62.6Zm8.99 1.03c-.54 0-1.03-.1-1.47-.28a3.18 3.18 0 0 1-1.8-2.09 5.5 5.5 0 0 1-.24-1.68c0-.61.08-1.16.24-1.66.16-.5.39-.93.69-1.28a3.1 3.1 0 0 1 1.1-.82c.45-.2.94-.29 1.48-.29s1.02.1 1.45.28c.44.2.81.47 1.11.83.31.35.55.78.7 1.28.17.5.25 1.05.25 1.66a5.5 5.5 0 0 1-.24 1.68c-.16.49-.4.91-.7 1.28-.3.34-.68.62-1.12.8-.43.2-.91.29-1.45.29Zm0-1.03c.67 0 1.2-.2 1.62-.6.4-.4.61-1.03.61-1.87v-1.1c0-.84-.2-1.47-.61-1.87-.41-.4-.95-.6-1.62-.6-.67 0-1.21.2-1.62.6-.41.4-.62 1.03-.62 1.86v1.12c0 .84.2 1.46.62 1.85.4.4.95.6 1.62.6Zm6.07-10.25h1.2v7h.06l1.35-1.27 2.58-2.37h1.47l-3.21 3.03 3.58 4.71h-1.48l-3.02-4.02-1.33 1.22v2.8h-1.2v-11.1Zm12.4 1.65c-.35 0-.6-.07-.74-.21a.78.78 0 0 1-.21-.56v-.24c0-.22.07-.4.21-.53.14-.16.38-.23.73-.23s.6.07.74.22.21.32.21.54v.25c0 .22-.07.4-.21.55-.14.14-.39.21-.74.21Zm-3.4 8.43h2.8v-5.7h-2.8v-1.02h4v6.72h2.6V242h-6.6v-1.02Zm8.88 1.02v-7.74h1.2v1.26h.06c.08-.19.18-.37.3-.54a1.93 1.93 0 0 1 1.06-.78c.24-.08.52-.12.84-.12.81 0 1.46.26 1.95.78.5.51.74 1.23.74 2.17V242h-1.2v-4.75c0-.72-.16-1.24-.47-1.58-.3-.35-.76-.52-1.36-.52-.24 0-.48.03-.7.09-.24.05-.44.14-.62.26a1.3 1.3 0 0 0-.6 1.13V242h-1.2Zm15.94.88c0 .78-.33 1.36-.98 1.73-.65.38-1.62.57-2.92.57a5.5 5.5 0 0 1-2.7-.5c-.54-.33-.81-.8-.81-1.42 0-.42.1-.75.33-.97.22-.23.53-.4.93-.51v-.19a1.34 1.34 0 0 1-.51-.41 1.1 1.1 0 0 1-.18-.65c0-.4.13-.7.39-.9.27-.2.6-.35 1-.45v-.06a2.52 2.52 0 0 1-1.12-.93 2.63 2.63 0 0 1-.4-1.44c0-.39.08-.75.22-1.08.14-.33.34-.61.6-.84.27-.24.59-.43.96-.56.37-.13.78-.19 1.23-.19.58 0 1.09.1 1.53.31v-.13c0-.3.07-.55.2-.75.15-.2.39-.3.73-.3h1.42v1.05h-1.74v.53a2.45 2.45 0 0 1 .87 1.96c0 .39-.07.75-.22 1.08a2.45 2.45 0 0 1-1.56 1.4 3.69 3.69 0 0 1-1.6.18 4.42 4.42 0 0 1-.37-.05 1.93 1.93 0 0 0-.73.28.94.94 0 0 0-.27.26c-.07.1-.1.22-.1.34 0 .23.1.39.34.47.23.07.53.1.9.1h1.7c1 0 1.73.2 2.18.57.45.38.68.88.68 1.5Zm-1.13.06a.9.9 0 0 0-.37-.75c-.25-.18-.69-.26-1.3-.26h-2.7c-.51.2-.77.56-.77 1.04 0 .34.13.63.4.88s.72.37 1.35.37h1.17c.7 0 1.25-.11 1.64-.33.39-.21.58-.52.58-.94Zm-2.83-4.45c.6 0 1.04-.14 1.32-.42.29-.28.43-.65.43-1.11v-.44c0-.46-.14-.82-.43-1.09-.28-.28-.72-.42-1.32-.42-.6 0-1.04.14-1.32.42-.28.27-.42.63-.42 1.1v.43c0 .46.14.83.42 1.11.28.28.72.42 1.32.42Zm9 3.69c-.93 0-1.7-.17-2.3-.51-.6-.35-1.1-.8-1.49-1.33l.92-.75c.4.5.84.88 1.29 1.13.46.25 1 .38 1.63.38.76 0 1.34-.17 1.74-.53.4-.34.6-.83.6-1.47 0-.5-.14-.9-.43-1.18-.3-.29-.8-.5-1.52-.61l-1.17-.2a4.56 4.56 0 0 1-1.29-.4 2.45 2.45 0 0 1-1.28-1.49 3.43 3.43 0 0 1-.13-.96c0-.96.32-1.69.95-2.17a4.05 4.05 0 0 1 2.55-.74c.84 0 1.54.14 2.11.42a3.5 3.5 0 0 1 1.4 1.19l-.89.76a3.6 3.6 0 0 0-1.05-.93 3.12 3.12 0 0 0-1.59-.36c-.7 0-1.25.15-1.63.45-.38.3-.57.75-.57 1.35 0 .47.14.86.42 1.16.29.29.8.5 1.54.63l1.13.19c.5.09.94.22 1.29.4.35.18.63.4.84.65.22.25.37.53.46.84.1.31.14.64.14.97 0 .97-.32 1.74-.96 2.28-.63.56-1.53.83-2.7.83Zm9.17 0c-.56 0-1.07-.1-1.52-.28a3.3 3.3 0 0 1-1.86-2.09 5.15 5.15 0 0 1-.25-1.66c0-.63.08-1.19.25-1.69.18-.5.43-.92.74-1.27a3.1 3.1 0 0 1 1.1-.82c.45-.2.93-.29 1.46-.29.52 0 1 .1 1.41.28a3.4 3.4 0 0 1 1.78 1.98c.17.47.25.97.25 1.52v.57h-5.73v.36c0 .34.05.66.16.95.11.28.27.53.47.75a2.28 2.28 0 0 0 1.74.66c.52 0 .97-.13 1.35-.37.38-.24.67-.56.87-.99l.88.6c-.23.53-.61.96-1.15 1.3-.53.32-1.18.49-1.95.49Zm-.08-7.11a2.3 2.3 0 0 0-1.65.68 2.41 2.41 0 0 0-.64 1.68v.1h4.44v-.16a2.52 2.52 0 0 0-.6-1.66c-.18-.2-.4-.37-.68-.47a2.21 2.21 0 0 0-.87-.17Zm10.81 5.67h-.06a2.5 2.5 0 0 1-2.38 1.44c-.95 0-1.7-.36-2.24-1.06a4.9 4.9 0 0 1-.8-2.99c0-1.28.27-2.28.8-2.98a2.65 2.65 0 0 1 2.24-1.07 2.5 2.5 0 0 1 2.38 1.44h.06v-1.26h1.2V242h-1.2v-1.26Zm-1.98.38c.27 0 .53-.04.77-.11s.45-.17.63-.3c.18-.14.32-.3.42-.5.1-.2.16-.43.16-.69v-2.78c0-.27-.05-.49-.16-.68-.1-.2-.24-.37-.42-.5a1.86 1.86 0 0 0-.63-.31c-.24-.07-.5-.1-.77-.1-.7 0-1.24.21-1.63.64a2.4 2.4 0 0 0-.57 1.68v1.32c0 .7.19 1.27.57 1.7.39.41.93.63 1.63.63Zm9.47.88c-.59 0-1.02-.16-1.3-.5-.27-.32-.4-.75-.4-1.27v-4.95h-2.59v-1.02h1.93c.25 0 .44-.05.53-.15.12-.11.17-.3.17-.56v-2.02h1.16v2.73h3.52v1.02h-3.53v5.7h3.53V242h-3.01Zm86.5-7.74h1.2v1.26h.06a2.5 2.5 0 0 1 2.38-1.44c.95 0 1.7.35 2.22 1.06.54.72.81 1.71.81 2.99 0 1.28-.27 2.28-.8 2.99a2.61 2.61 0 0 1-2.23 1.06 2.5 2.5 0 0 1-2.38-1.44h-.06V245h-1.2v-10.74Zm3.18 6.86c.7 0 1.24-.22 1.62-.63.39-.44.58-1 .58-1.7v-1.32c0-.7-.2-1.26-.58-1.68a2.05 2.05 0 0 0-1.62-.64c-.27 0-.53.03-.77.1s-.45.18-.63.31-.32.3-.43.5c-.1.19-.15.41-.15.68v2.78c0 .26.05.5.15.7a1.7 1.7 0 0 0 1.06.79c.24.07.5.1.77.1Zm5.54-.14h2.27v-5.7h-2.27v-1.02h3.47v1.95h.07c.16-.61.46-1.09.9-1.43a2.7 2.7 0 0 1 1.71-.52h1.08v1.2h-1.45c-.7 0-1.25.2-1.69.6-.42.4-.63.93-.63 1.57v3.35h3V242h-6.46v-1.02Zm12.82-8.43c-.35 0-.6-.07-.74-.21a.78.78 0 0 1-.2-.56v-.24c0-.22.06-.4.2-.53.14-.16.39-.23.74-.23s.6.07.73.22c.14.15.21.32.21.54v.25c0 .22-.07.4-.2.55-.15.14-.4.21-.74.21Zm-3.4 8.43h2.8v-5.7h-2.8v-1.02h4v6.72h2.6V242h-6.6v-1.02Zm12 1.2c-.8 0-1.5-.14-2.1-.4a4.7 4.7 0 0 1-1.48-1.12l.8-.7c.38.39.78.69 1.22.9.44.21.97.31 1.6.31.6 0 1.08-.1 1.46-.31.4-.22.59-.56.59-1.02 0-.2-.04-.37-.12-.5a.8.8 0 0 0-.3-.33 3.8 3.8 0 0 0-.94-.3l-1.22-.18c-.27-.03-.57-.09-.89-.16-.3-.07-.6-.18-.85-.33a2.2 2.2 0 0 1-.66-.63c-.17-.26-.26-.6-.26-1.02 0-.39.08-.72.23-1 .16-.3.38-.53.66-.72.28-.2.6-.35.99-.44.38-.1.8-.15 1.24-.15.7 0 1.3.11 1.82.33.52.22.96.53 1.33.91l-.78.74a2.2 2.2 0 0 0-.34-.33c-.13-.12-.3-.22-.5-.31a2.8 2.8 0 0 0-.67-.24 4.03 4.03 0 0 0-.9-.1c-.61 0-1.08.11-1.41.32-.32.21-.48.51-.48.91 0 .2.03.38.1.51.08.14.19.24.32.32.13.08.27.15.43.2l.51.1 1.22.18c.28.04.57.1.88.16.31.07.6.19.86.35.26.15.47.36.64.62.18.25.27.6.27 1.01 0 .78-.3 1.37-.9 1.79a4 4 0 0 1-2.37.63Zm5.22-.18v-7.74h1.1v.9h.07c.12-.3.29-.56.5-.76.23-.22.55-.32.98-.32.45 0 .79.11 1 .34.23.23.36.52.41.88h.05c.14-.36.34-.65.6-.88.26-.22.62-.34 1.08-.34.63 0 1.05.22 1.26.66.22.44.33 1.07.33 1.89V242h-1.11v-5.18c0-.66-.07-1.11-.21-1.36-.13-.26-.38-.39-.74-.39-.32 0-.58.1-.78.31-.2.2-.3.52-.3.94V242h-1.1v-5.18c0-.66-.08-1.11-.22-1.36-.13-.26-.37-.39-.72-.39-.32 0-.58.1-.8.31-.2.2-.3.52-.3.94V242h-1.1Zm14.56-1.26h-.06a2.5 2.5 0 0 1-2.39 1.44c-.95 0-1.7-.36-2.23-1.06a4.9 4.9 0 0 1-.8-2.99c0-1.28.27-2.28.8-2.98a2.65 2.65 0 0 1 2.23-1.07 2.5 2.5 0 0 1 2.39 1.44h.06v-1.26h1.2V242h-1.2v-1.26Zm-1.98.38c.27 0 .52-.04.76-.11s.45-.17.63-.3c.18-.14.32-.3.42-.5.11-.2.17-.43.17-.69v-2.78c0-.27-.06-.49-.17-.68-.1-.2-.24-.37-.42-.5a1.86 1.86 0 0 0-.63-.31c-.24-.07-.5-.1-.76-.1-.7 0-1.25.21-1.64.64a2.4 2.4 0 0 0-.57 1.68v1.32c0 .7.2 1.27.57 1.7.4.41.94.63 1.64.63Zm9.1 1.01c-.41 0-.7-.08-.87-.25a.9.9 0 0 1-.24-.64v-.28a.9.9 0 0 1 .24-.64c.17-.17.46-.25.87-.25.4 0 .7.08.85.25.17.17.26.39.26.65v.27c0 .25-.09.47-.26.64-.16.17-.44.25-.85.25Zm5.92-11.23h1.2v4.62h.06a2.5 2.5 0 0 1 2.38-1.44c.95 0 1.69.35 2.22 1.06.54.72.81 1.71.81 2.99 0 1.28-.27 2.28-.81 2.99a2.61 2.61 0 0 1-2.22 1.06 2.5 2.5 0 0 1-2.38-1.44h-.06V242h-1.2v-11.1Zm3.18 10.22c.7 0 1.24-.22 1.62-.63.38-.44.58-1 .58-1.7v-1.32c0-.7-.2-1.26-.58-1.68a2.05 2.05 0 0 0-1.63-.64c-.26 0-.52.03-.76.1s-.45.18-.63.31-.33.3-.44.5c-.1.19-.15.41-.15.68v2.78c0 .26.06.5.16.7a1.7 1.7 0 0 0 1.06.79c.24.07.5.1.76.1Zm8.88 1.06c-.54 0-1.03-.1-1.47-.28a3.18 3.18 0 0 1-1.8-2.09 5.5 5.5 0 0 1-.24-1.68c0-.61.08-1.16.24-1.66.16-.5.4-.93.7-1.28a3.1 3.1 0 0 1 1.1-.82c.44-.2.93-.29 1.47-.29.54 0 1.03.1 1.46.28a3.5 3.5 0 0 1 1.81 2.1c.16.5.24 1.06.24 1.67a5.5 5.5 0 0 1-.24 1.68c-.16.49-.4.91-.7 1.28-.3.34-.67.62-1.11.8-.43.2-.92.29-1.46.29Zm0-1.03c.67 0 1.21-.2 1.62-.6.41-.4.62-1.03.62-1.87v-1.1c0-.84-.2-1.47-.62-1.87-.4-.4-.95-.6-1.62-.6-.67 0-1.2.2-1.62.6-.4.4-.61 1.03-.61 1.86v1.12c0 .84.2 1.46.61 1.85.41.4.95.6 1.62.6Zm9 1.03c-.54 0-1.03-.1-1.47-.28a3.18 3.18 0 0 1-1.8-2.09 5.5 5.5 0 0 1-.24-1.68c0-.61.08-1.16.24-1.66.16-.5.39-.93.69-1.28a3.1 3.1 0 0 1 1.1-.82c.45-.2.94-.29 1.48-.29s1.02.1 1.45.28c.44.2.81.47 1.11.83.31.35.55.78.7 1.28.17.5.25 1.05.25 1.66a5.5 5.5 0 0 1-.24 1.68c-.16.49-.4.91-.7 1.28-.3.34-.68.62-1.12.8-.43.2-.91.29-1.45.29Zm0-1.03c.67 0 1.2-.2 1.62-.6.4-.4.61-1.03.61-1.87v-1.1c0-.84-.2-1.47-.61-1.87-.41-.4-.95-.6-1.62-.6-.67 0-1.21.2-1.62.6-.41.4-.62 1.03-.62 1.86v1.12c0 .84.2 1.46.62 1.85.4.4.95.6 1.62.6Zm6.07-10.25h1.2v7h.06l1.35-1.27 2.58-2.37h1.47l-3.21 3.03 3.58 4.71h-1.48l-3.02-4.02-1.33 1.22v2.8h-1.2v-11.1Zm12.4 1.65c-.35 0-.6-.07-.74-.21a.78.78 0 0 1-.2-.56v-.24c0-.22.06-.4.2-.53.14-.16.39-.23.74-.23s.6.07.73.22c.14.15.21.32.21.54v.25c0 .22-.07.4-.2.55-.15.14-.4.21-.74.21Zm-3.4 8.43h2.8v-5.7h-2.8v-1.02h4v6.72h2.6V242h-6.6v-1.02Zm8.88 1.02v-7.74h1.2v1.26h.06c.08-.19.18-.37.3-.54a1.93 1.93 0 0 1 1.07-.78c.24-.08.52-.12.84-.12.8 0 1.46.26 1.95.78.49.51.73 1.23.73 2.17V242h-1.2v-4.75c0-.72-.15-1.24-.46-1.58-.31-.35-.77-.52-1.37-.52-.24 0-.47.03-.7.09-.23.05-.44.14-.62.26-.18.13-.32.28-.43.47a1.3 1.3 0 0 0-.17.66V242h-1.2Zm15.94.88c0 .78-.32 1.36-.97 1.73-.66.38-1.63.57-2.93.57a5.5 5.5 0 0 1-2.7-.5c-.54-.33-.81-.8-.81-1.42 0-.42.11-.75.33-.97.22-.23.53-.4.93-.51v-.19a1.34 1.34 0 0 1-.51-.41 1.1 1.1 0 0 1-.18-.65c0-.4.13-.7.39-.9.27-.2.6-.35 1-.45v-.06a2.52 2.52 0 0 1-1.12-.93 2.63 2.63 0 0 1-.39-1.44c0-.39.07-.75.21-1.08.14-.33.34-.61.6-.84.27-.24.59-.43.96-.56.37-.13.78-.19 1.23-.19.58 0 1.09.1 1.53.31v-.13c0-.3.07-.55.21-.75.14-.2.38-.3.72-.3h1.43v1.05h-1.75v.53a2.45 2.45 0 0 1 .88 1.96c0 .39-.08.75-.23 1.08a2.45 2.45 0 0 1-1.56 1.4 3.69 3.69 0 0 1-1.6.18 4.42 4.42 0 0 1-.37-.05 1.93 1.93 0 0 0-.73.28.94.94 0 0 0-.27.26c-.07.1-.1.22-.1.34 0 .23.11.39.34.47.23.07.53.1.9.1h1.71c1 0 1.72.2 2.18.57.44.38.67.88.67 1.5Zm-1.13.06a.9.9 0 0 0-.37-.75c-.25-.18-.69-.26-1.3-.26h-2.69c-.52.2-.78.56-.78 1.04 0 .34.13.63.4.88.28.25.73.37 1.36.37h1.17c.7 0 1.24-.11 1.63-.33.39-.21.58-.52.58-.94Zm-2.83-4.45c.6 0 1.04-.14 1.32-.42.29-.28.44-.65.44-1.11v-.44c0-.46-.15-.82-.44-1.09-.28-.28-.72-.42-1.32-.42-.6 0-1.04.14-1.32.42-.28.27-.42.63-.42 1.1v.43c0 .46.14.83.42 1.11.28.28.72.42 1.32.42Zm9 3.69c-.93 0-1.7-.17-2.3-.51-.6-.35-1.1-.8-1.49-1.33l.92-.75c.4.5.84.88 1.29 1.13.46.25 1 .38 1.63.38.76 0 1.34-.17 1.74-.53.4-.34.6-.83.6-1.47 0-.5-.14-.9-.43-1.18-.3-.29-.8-.5-1.52-.61l-1.17-.2a4.56 4.56 0 0 1-1.29-.4 2.45 2.45 0 0 1-1.27-1.49 3.43 3.43 0 0 1-.14-.96c0-.96.32-1.69.95-2.17a4.05 4.05 0 0 1 2.55-.74c.84 0 1.54.14 2.11.42a3.5 3.5 0 0 1 1.4 1.19l-.89.76a3.6 3.6 0 0 0-1.05-.93 3.12 3.12 0 0 0-1.59-.36c-.7 0-1.25.15-1.63.45-.38.3-.57.75-.57 1.35 0 .47.14.86.42 1.16.29.29.8.5 1.54.63l1.13.19c.5.09.94.22 1.29.4.35.18.63.4.84.65.22.25.37.53.46.84.1.31.14.64.14.97 0 .97-.32 1.74-.96 2.28-.63.56-1.53.83-2.7.83Zm9.17 0c-.56 0-1.07-.1-1.52-.28a3.3 3.3 0 0 1-1.86-2.09 5.15 5.15 0 0 1-.25-1.66c0-.63.08-1.19.25-1.69.18-.5.43-.92.74-1.27a3.1 3.1 0 0 1 1.1-.82c.45-.2.93-.29 1.46-.29.52 0 1 .1 1.41.28a3.4 3.4 0 0 1 1.79 1.98c.16.47.24.97.24 1.52v.57h-5.73v.36c0 .34.05.66.16.95.11.28.27.53.47.75a2.28 2.28 0 0 0 1.74.66c.52 0 .97-.13 1.35-.37.38-.24.67-.56.87-.99l.88.6c-.23.53-.61.96-1.15 1.3-.53.32-1.18.49-1.95.49Zm-.08-7.11a2.3 2.3 0 0 0-1.65.68 2.41 2.41 0 0 0-.64 1.68v.1h4.44v-.16a2.52 2.52 0 0 0-.6-1.66c-.18-.2-.4-.37-.68-.47a2.21 2.21 0 0 0-.87-.17Zm10.81 5.67h-.06a2.5 2.5 0 0 1-2.38 1.44c-.95 0-1.7-.36-2.24-1.06a4.9 4.9 0 0 1-.8-2.99c0-1.28.27-2.28.8-2.98a2.65 2.65 0 0 1 2.24-1.07 2.5 2.5 0 0 1 2.38 1.44h.06v-1.26h1.2V242h-1.2v-1.26Zm-1.98.38c.27 0 .53-.04.77-.11s.45-.17.63-.3c.18-.14.32-.3.42-.5.1-.2.16-.43.16-.69v-2.78c0-.27-.05-.49-.16-.68-.1-.2-.24-.37-.42-.5a1.86 1.86 0 0 0-.63-.31c-.24-.07-.5-.1-.77-.1-.7 0-1.24.21-1.63.64a2.4 2.4 0 0 0-.57 1.68v1.32c0 .7.19 1.27.57 1.7.39.41.93.63 1.63.63Zm9.48.88c-.6 0-1.03-.16-1.3-.5-.28-.32-.41-.75-.41-1.27v-4.95h-2.58v-1.02h1.92c.26 0 .44-.05.54-.15.1-.11.16-.3.16-.56v-2.02h1.16v2.73h3.52v1.02h-3.52v5.7h3.52V242h-3.01Zm8.62.13c-.41 0-.7-.08-.87-.25a.9.9 0 0 1-.24-.64v-.28a.9.9 0 0 1 .24-.64c.17-.17.46-.25.87-.25.4 0 .7.08.85.25.17.17.26.39.26.65v.27c0 .25-.09.47-.26.64-.16.17-.44.25-.85.25Zm5.74-1.15h2.6v-5.7h-2.75v-1.02h2.75v-1.59c0-.52.14-.94.41-1.27.28-.34.72-.5 1.3-.5h2.6v1.02h-3.1v2.34h3.1v1.02h-3.1v5.7h2.75V242h-6.56v-1.02Zm12.72-8.43c-.35 0-.6-.07-.73-.21a.78.78 0 0 1-.21-.56v-.24c0-.22.07-.4.2-.53.15-.16.4-.23.74-.23.35 0 .6.07.74.22s.2.32.2.54v.25c0 .22-.06.4-.2.55-.14.14-.39.21-.74.21Zm-3.39 8.43h2.8v-5.7h-2.8v-1.02h4v6.72h2.6V242h-6.6v-1.02Zm8.88 1.02v-7.74h1.2v1.26h.06c.08-.19.18-.37.3-.54a1.93 1.93 0 0 1 1.06-.78c.24-.08.52-.12.84-.12.81 0 1.46.26 1.95.78.5.51.74 1.23.74 2.17V242h-1.2v-4.75c0-.72-.16-1.24-.47-1.58-.3-.35-.76-.52-1.36-.52-.24 0-.48.03-.7.09-.24.05-.44.14-.62.26a1.3 1.3 0 0 0-.6 1.13V242h-1.2Zm13.9-1.26h-.06a2.5 2.5 0 0 1-2.39 1.44c-.95 0-1.7-.36-2.23-1.06a4.9 4.9 0 0 1-.8-2.99c0-1.28.27-2.28.8-2.98a2.65 2.65 0 0 1 2.23-1.07 2.5 2.5 0 0 1 2.39 1.44h.06v-4.62h1.2V242h-1.2v-1.26Zm-1.98.38c.27 0 .52-.04.76-.11s.45-.17.63-.3c.18-.14.32-.3.42-.5.11-.2.17-.43.17-.69v-2.78c0-.27-.06-.49-.17-.68-.1-.2-.24-.37-.42-.5a1.86 1.86 0 0 0-.63-.31c-.24-.07-.5-.1-.76-.1-.7 0-1.25.21-1.64.64a2.4 2.4 0 0 0-.57 1.68v1.32c0 .7.2 1.27.57 1.7.4.41.94.63 1.64.63Zm7.06-9.59v6.28c0 .51.01.97.04 1.37.03.4.11.75.24 1.03s.33.5.6.65c.28.15.67.22 1.16.22.49 0 .87-.07 1.14-.22.28-.15.48-.37.61-.65s.21-.63.24-1.03.05-.86.05-1.37v-6.28h1.26v5.98c0 .78-.04 1.47-.12 2.05a3.57 3.57 0 0 1-.47 1.45c-.23.39-.56.69-1 .89-.43.19-1 .28-1.71.28a4.4 4.4 0 0 1-1.73-.28c-.43-.2-.76-.5-1-.89a3.9 3.9 0 0 1-.47-1.45c-.07-.59-.1-1.27-.1-2.05v-5.98h1.26Zm8 10.47v-7.74h1.2v1.26h.06c.08-.19.18-.37.3-.54a1.93 1.93 0 0 1 1.06-.78c.25-.08.53-.12.85-.12.8 0 1.45.26 1.94.78.5.51.74 1.23.74 2.17V242h-1.2v-4.75c0-.72-.15-1.24-.46-1.58-.31-.35-.77-.52-1.37-.52-.24 0-.47.03-.7.09-.24.05-.44.14-.62.26a1.3 1.3 0 0 0-.6 1.13V242h-1.2Zm12.4 0c-.59 0-1.02-.16-1.3-.5-.27-.32-.41-.75-.41-1.27v-4.95h-2.58v-1.02h1.92c.26 0 .44-.05.54-.15.11-.11.16-.3.16-.56v-2.02h1.16v2.73h3.52v1.02h-3.52v5.7h3.52V242h-3.01Zm9.1-9.45c-.35 0-.6-.07-.74-.21a.78.78 0 0 1-.2-.56v-.24c0-.22.06-.4.2-.53.14-.16.39-.23.74-.23s.6.07.73.22c.14.15.21.32.21.54v.25c0 .22-.07.4-.2.55-.15.14-.4.21-.74.21Zm-3.4 8.43h2.8v-5.7h-2.8v-1.02h4v6.72h2.6V242h-6.6v-1.02ZM533.6 242c-.6 0-1.03-.16-1.3-.5-.28-.32-.41-.75-.41-1.27v-4.95h-2.58v-1.02h1.92c.26 0 .44-.05.54-.15.1-.11.16-.3.16-.56v-2.02h1.16v2.73h3.52v1.02h-3.52v5.7h3.52V242h-3.01Zm-264.55 44.98h2.26v-5.7h-2.26v-1.02h3.46v1.95h.08c.16-.61.46-1.08.9-1.42a2.7 2.7 0 0 1 1.7-.53h1.09v1.2h-1.46c-.69 0-1.25.2-1.68.6-.42.4-.63.93-.63 1.57v3.35h3V288h-6.46v-1.02Zm12.47 1.2c-.56 0-1.06-.1-1.51-.29a3.3 3.3 0 0 1-1.86-2.08 5.15 5.15 0 0 1-.26-1.67c0-.62.09-1.18.26-1.68.18-.5.42-.92.73-1.27a3.1 3.1 0 0 1 1.11-.82c.44-.2.93-.29 1.46-.29.52 0 .99.1 1.4.29.44.19.8.45 1.1.79.3.33.53.72.7 1.19.15.45.23.96.23 1.51v.57h-5.73v.36c0 .34.06.65.17.94.1.3.26.54.46.75a2.28 2.28 0 0 0 1.74.66c.52 0 .97-.12 1.35-.35.38-.25.67-.58.87-1l.89.6c-.23.53-.62.96-1.16 1.3-.53.32-1.18.49-1.95.49Zm-.07-7.11a2.3 2.3 0 0 0-1.65.68 2.41 2.41 0 0 0-.65 1.68v.1h4.44v-.16a2.52 2.52 0 0 0-.6-1.66c-.18-.2-.4-.36-.67-.47a2.21 2.21 0 0 0-.87-.17Zm9.02 7.11c-.8 0-1.5-.13-2.1-.4a4.7 4.7 0 0 1-1.48-1.11l.8-.71c.38.39.78.69 1.22.9.44.21.97.31 1.6.31.6 0 1.08-.1 1.46-.31.4-.22.59-.56.59-1.02 0-.2-.04-.36-.12-.5a.8.8 0 0 0-.3-.32 3.8 3.8 0 0 0-.94-.3l-1.22-.18-.89-.17c-.3-.07-.6-.18-.85-.33a2.2 2.2 0 0 1-.66-.63c-.17-.26-.26-.6-.26-1.02 0-.39.08-.72.23-1 .16-.3.38-.53.66-.72.28-.2.6-.35.99-.44.38-.1.8-.15 1.24-.15.7 0 1.3.11 1.82.33.52.22.96.52 1.33.91l-.78.74a2.2 2.2 0 0 0-.34-.33c-.13-.12-.3-.23-.5-.31a2.8 2.8 0 0 0-.67-.25 4.03 4.03 0 0 0-.9-.09c-.61 0-1.08.11-1.41.32-.32.21-.48.52-.48.92 0 .2.03.37.1.5.08.13.19.24.32.32.13.08.27.15.43.2l.51.1 1.22.18c.28.04.57.1.88.17.31.06.6.18.86.34.26.15.47.36.64.62.18.25.27.6.27 1.01 0 .78-.3 1.37-.9 1.79a4 4 0 0 1-2.37.63Zm9.18 0a3.2 3.2 0 0 1-2.6-1.11c-.3-.35-.53-.77-.69-1.27a5.78 5.78 0 0 1 .01-3.34c.16-.5.4-.92.7-1.27.3-.36.66-.63 1.09-.82a3.6 3.6 0 0 1 1.47-.29c.75 0 1.36.17 1.83.5.47.32.81.75 1.04 1.29l-.97.5a1.8 1.8 0 0 0-.7-.93 2.07 2.07 0 0 0-1.2-.32c-.35 0-.67.06-.94.18-.28.1-.5.26-.7.47-.19.22-.33.47-.43.75-.09.3-.13.61-.13.95v1.32c0 .34.04.65.13.94a2 2 0 0 0 1.14 1.25c.28.11.6.16.96.16.52 0 .95-.12 1.29-.35.34-.25.61-.58.81-1l.86.59c-.24.52-.6.95-1.09 1.29a3.2 3.2 0 0 1-1.88.51Zm5.69-11.28h1.2v4.62h.06c.08-.19.18-.37.3-.54a1.93 1.93 0 0 1 1.06-.78c.24-.08.52-.12.84-.12.81 0 1.46.26 1.95.78.5.51.74 1.24.74 2.18V288h-1.2v-4.75c0-.71-.16-1.24-.47-1.58-.3-.35-.76-.53-1.36-.53-.24 0-.48.04-.7.1-.24.06-.44.14-.62.26a1.3 1.3 0 0 0-.6 1.13V288h-1.2v-11.1Zm12.16 11.28c-.56 0-1.07-.1-1.52-.29a3.3 3.3 0 0 1-1.86-2.08 5.15 5.15 0 0 1-.25-1.67c0-.62.08-1.18.25-1.68.18-.5.43-.92.74-1.27a3.1 3.1 0 0 1 1.1-.82c.45-.2.93-.29 1.46-.29.52 0 1 .1 1.41.29.43.19.8.45 1.1.79.3.33.53.72.69 1.19.16.45.24.96.24 1.51v.57h-5.73v.36c0 .34.05.65.16.94.11.3.27.54.47.75a2.28 2.28 0 0 0 1.74.66c.52 0 .97-.12 1.35-.35.38-.25.67-.58.87-1l.88.6c-.23.53-.61.96-1.15 1.3-.53.32-1.18.49-1.95.49Zm-.08-7.11a2.3 2.3 0 0 0-1.65.68 2.41 2.41 0 0 0-.64 1.68v.1h4.44v-.16a2.52 2.52 0 0 0-.6-1.66c-.18-.2-.4-.36-.68-.47a2.21 2.21 0 0 0-.87-.17Zm10.81 5.67h-.06a2.5 2.5 0 0 1-2.38 1.44c-.95 0-1.7-.36-2.24-1.06a4.9 4.9 0 0 1-.8-2.99c0-1.28.27-2.27.8-2.99a2.65 2.65 0 0 1 2.24-1.06 2.5 2.5 0 0 1 2.38 1.44h.06v-4.62h1.2V288h-1.2v-1.26Zm-1.98.38c.27 0 .53-.04.77-.11s.45-.17.63-.3c.18-.14.32-.3.42-.5.1-.2.16-.42.16-.69v-2.78c0-.26-.05-.49-.16-.68-.1-.2-.24-.37-.42-.5a1.86 1.86 0 0 0-.63-.31c-.24-.07-.5-.1-.77-.1-.7 0-1.24.21-1.63.64a2.4 2.4 0 0 0-.57 1.68v1.32c0 .7.19 1.26.57 1.7.39.41.93.63 1.63.63Zm10.93-.38h-.06c-.08.19-.18.38-.3.56a2.1 2.1 0 0 1-1.06.76c-.24.08-.52.12-.84.12-.81 0-1.46-.25-1.95-.76a3.07 3.07 0 0 1-.74-2.2v-4.96h1.2v4.75c0 .72.16 1.25.47 1.6.3.33.76.5 1.36.5.24 0 .48-.03.7-.09.24-.06.44-.14.62-.26.18-.13.33-.27.44-.45.1-.2.16-.42.16-.68v-5.37h1.2V288h-1.2v-1.26Zm3.87.24h2.7v-9.06h-2.7v-1.02h3.9v10.08h2.7V288h-6.6v-1.02Zm12.42 1.2c-.56 0-1.06-.1-1.51-.29a3.3 3.3 0 0 1-1.86-2.08 5.15 5.15 0 0 1-.25-1.67c0-.62.08-1.18.25-1.68.18-.5.43-.92.74-1.27a3.1 3.1 0 0 1 1.1-.82c.44-.2.93-.29 1.46-.29.52 0 .99.1 1.41.29.43.19.8.45 1.1.79.3.33.53.72.69 1.19.16.45.24.96.24 1.51v.57h-5.73v.36c0 .34.05.65.16.94.11.3.26.54.47.75a2.28 2.28 0 0 0 1.73.66c.53 0 .98-.12 1.36-.35.38-.25.67-.58.87-1l.88.6c-.23.53-.62.96-1.15 1.3-.54.32-1.19.49-1.96.49Zm-.07-7.11a2.3 2.3 0 0 0-1.65.68 2.41 2.41 0 0 0-.64 1.68v.1h4.44v-.16a2.52 2.52 0 0 0-.6-1.66c-.19-.2-.41-.36-.68-.47a2.21 2.21 0 0 0-.87-.17Zm6.9-3.54v6.29c0 .5 0 .96.04 1.36.03.4.1.75.24 1.03.13.29.33.5.6.65.28.15.66.22 1.15.22.5 0 .87-.07 1.14-.22.28-.15.49-.37.62-.65s.2-.63.24-1.03c.03-.4.04-.86.04-1.37v-6.28h1.26v5.99c0 .78-.04 1.46-.12 2.04a3.57 3.57 0 0 1-.46 1.45c-.23.39-.57.69-1 .88-.44.2-1 .29-1.72.29a4.4 4.4 0 0 1-1.72-.29c-.43-.2-.77-.49-1-.88a3.9 3.9 0 0 1-.47-1.45c-.07-.58-.1-1.26-.1-2.05v-5.98h1.25Zm11.5 1.02c-.34 0-.59-.07-.73-.21a.78.78 0 0 1-.2-.55v-.25c0-.22.06-.4.2-.54s.39-.22.74-.22.6.08.73.23c.14.13.21.31.21.54v.24c0 .21-.07.4-.2.55-.15.14-.4.21-.74.21Zm-3.38 8.43h2.79v-5.7h-2.8v-1.02h4v6.72h2.6V288h-6.6v-1.02Zm13.78-.24h-.06a2.5 2.5 0 0 1-2.39 1.44c-.95 0-1.7-.36-2.23-1.06a4.9 4.9 0 0 1-.8-2.99c0-1.28.27-2.27.8-2.99a2.65 2.65 0 0 1 2.23-1.06 2.5 2.5 0 0 1 2.39 1.44h.06v-4.62h1.2V288h-1.2v-1.26Zm-1.98.38c.27 0 .52-.04.76-.11s.45-.17.63-.3c.18-.14.32-.3.42-.5.11-.2.17-.42.17-.69v-2.78c0-.26-.06-.49-.17-.68-.1-.2-.24-.37-.42-.5a1.86 1.86 0 0 0-.63-.31c-.24-.07-.5-.1-.76-.1-.7 0-1.25.21-1.64.64a2.4 2.4 0 0 0-.57 1.68v1.32c0 .7.2 1.26.57 1.7.4.41.94.63 1.64.63Z" fill="#D8A87C"/></g><g opacity=".3" filter="url(#filter4_f_125_1126)"><ellipse cx="426" cy="200" rx="44" ry="19" fill="#0A0812"/></g><path d="M394 193a12 12 0 0 1 12-12h48.5a13.5 13.5 0 1 1 0 27H396a2 2 0 0 1-2-2v-13Z" fill="#AD79D2"/><path d="M404.93 199v-9.46h1.71v4h4.39v-4h1.71V199h-1.71v-4.02h-4.38V199h-1.72Zm12.74.14c-.7 0-1.32-.15-1.84-.44a3 3 0 0 1-1.19-1.27 4.23 4.23 0 0 1-.41-1.93c0-.73.14-1.37.41-1.92a3.14 3.14 0 0 1 2.94-1.76c.44 0 .85.07 1.24.2.4.15.74.36 1.04.66.3.29.53.66.7 1.11.18.45.26.99.26 1.6v.52h-5.8v-1.13h4.2c0-.31-.07-.6-.2-.85a1.5 1.5 0 0 0-.57-.6 1.6 1.6 0 0 0-.84-.21c-.35 0-.65.08-.9.25-.26.16-.46.38-.6.64-.15.27-.22.56-.23.88v.98c0 .41.08.77.23 1.06.15.3.36.52.63.68.27.15.6.23.95.23.25 0 .47-.04.67-.1.2-.08.36-.18.5-.31.15-.14.26-.3.33-.5l1.57.17c-.1.41-.3.77-.57 1.08-.27.3-.62.54-1.05.7-.43.18-.92.26-1.47.26Zm6.24-4.3V199h-1.67v-7.1h1.6v1.21h.08c.16-.4.42-.7.78-.94.36-.24.8-.35 1.33-.35.5 0 .92.1 1.28.31.37.21.65.51.85.91.2.4.3.88.3 1.45V199h-1.67v-4.26c0-.47-.12-.84-.37-1.1a1.3 1.3 0 0 0-1.01-.41c-.3 0-.55.06-.78.2-.23.12-.4.3-.53.54-.13.24-.19.53-.19.88Zm6.25 4.16v-7.1h1.62v1.2h.08a1.77 1.77 0 0 1 1.74-1.3 3.95 3.95 0 0 1 .6.05v1.54a3.17 3.17 0 0 0-.78-.1c-.3 0-.57.07-.81.2a1.45 1.45 0 0 0-.78 1.34V199h-1.67Zm5.15 0v-7.1H437v7.1h-1.68Zm.84-8.1a.97.97 0 0 1-.68-.26.85.85 0 0 1-.29-.64c0-.25.1-.47.3-.64a.97.97 0 0 1 .67-.27c.27 0 .5.09.69.27.19.17.28.39.28.64s-.1.46-.28.64a.97.97 0 0 1-.69.26Zm7.77 1.25c-.05-.4-.23-.72-.55-.95a2.1 2.1 0 0 0-1.24-.33c-.35 0-.66.05-.91.16-.26.1-.46.25-.6.44a1.07 1.07 0 0 0-.06 1.14c.09.14.21.27.37.37.16.1.33.18.52.25.2.07.38.12.58.17l.89.22c.35.09.7.2 1.02.34.34.14.63.32.9.53a2.34 2.34 0 0 1 .86 1.85 2.56 2.56 0 0 1-1.66 2.45 4.8 4.8 0 0 1-1.93.35c-.74 0-1.38-.11-1.92-.34a2.85 2.85 0 0 1-1.26-1c-.3-.43-.47-.97-.5-1.6h1.7a1.43 1.43 0 0 0 1 1.32c.28.1.6.16.96.16.38 0 .7-.06.98-.17.29-.11.5-.27.67-.47.16-.2.24-.44.24-.7a.9.9 0 0 0-.22-.62 1.6 1.6 0 0 0-.6-.4c-.24-.11-.54-.21-.88-.3l-1.07-.28c-.78-.2-1.4-.5-1.85-.9a2.1 2.1 0 0 1-.67-1.63c0-.56.15-1.05.45-1.47a3 3 0 0 1 1.24-.97 4.3 4.3 0 0 1 1.78-.35c.67 0 1.26.11 1.76.35.5.23.9.55 1.2.96.29.41.44.88.44 1.42h-1.64Zm5.27 7c-.45 0-.86-.09-1.22-.25-.35-.16-.64-.4-.85-.72a2.1 2.1 0 0 1-.3-1.17 2 2 0 0 1 .22-1c.14-.25.34-.46.6-.62.26-.16.54-.28.86-.36.33-.08.66-.14 1-.18l1.02-.11c.25-.04.44-.1.56-.17.12-.07.18-.2.18-.35v-.03c0-.35-.1-.62-.3-.8-.21-.2-.51-.3-.9-.3-.41 0-.73.1-.97.27-.24.18-.4.4-.48.64l-1.56-.23a2.48 2.48 0 0 1 1.64-1.73 4.43 4.43 0 0 1 2.38-.1c.34.08.65.2.93.4a2 2 0 0 1 .67.74c.18.31.26.7.26 1.17V199h-1.6v-.97h-.06a2.02 2.02 0 0 1-1.12.96c-.27.1-.6.15-.96.15Zm.43-1.24c.34 0 .63-.06.87-.2.25-.13.44-.3.57-.53.14-.22.2-.46.2-.72v-.84a.8.8 0 0 1-.26.12l-.42.1-.46.07-.39.06c-.25.03-.47.09-.67.16-.2.08-.35.19-.46.33a.8.8 0 0 0-.17.52c0 .31.1.54.33.7.23.16.51.23.86.23Zm6.66-8.37V199h-1.67v-9.46h1.67Z" fill="#0A0812"/><g clip-path="url(#clip0_125_1126)"><path d="m394.89 218.26-17.14 7.07a.84.84 0 0 1-1.12-.6.84.84 0 0 1 .04-.48l7.07-17.13a.84.84 0 0 1 .82-.52.84.84 0 0 1 .75.6l2.08 7.27a.21.21 0 0 0 .14.15l7.27 2.07a.83.83 0 0 1 .09 1.57Z" fill="#AD79D2"/></g><g opacity=".3" filter="url(#filter5_f_125_1126)"><ellipse cx="354" cy="398" rx="52" ry="22" fill="#0A0812"/></g><path d="M310 387c0-1.1.9-2 2-2h75.5a13.5 13.5 0 1 1 0 27H322a12 12 0 0 1-12-12v-13Z" fill="#749FF6"/><path d="M329.02 396.74h-1.72a2.15 2.15 0 0 0-.77-1.32c-.2-.15-.42-.27-.67-.35a2.6 2.6 0 0 0-.81-.12c-.51 0-.97.13-1.37.4-.4.25-.7.62-.93 1.12-.22.49-.34 1.1-.34 1.8 0 .73.12 1.34.34 1.83.23.5.54.87.93 1.12a2.75 2.75 0 0 0 2.16.26 2.17 2.17 0 0 0 1.17-.88c.14-.22.24-.46.29-.74l1.72.01a3.7 3.7 0 0 1-1.25 2.3c-.34.3-.75.54-1.21.71-.46.17-.97.25-1.54.25a4.02 4.02 0 0 1-3.77-2.24 5.62 5.62 0 0 1-.56-2.62c0-1.02.2-1.89.57-2.61a4.06 4.06 0 0 1 3.76-2.24c.53 0 1.02.07 1.47.22a3.75 3.75 0 0 1 2.08 1.7c.23.4.38.87.45 1.4Zm3.54 6.4c-.45 0-.85-.08-1.21-.24-.36-.16-.64-.4-.85-.72a2.1 2.1 0 0 1-.31-1.17 2 2 0 0 1 .22-1c.15-.25.35-.46.6-.62.26-.16.55-.28.87-.36.32-.08.65-.14 1-.18l1.01-.11c.26-.04.45-.1.56-.17.12-.07.18-.2.18-.35v-.03c0-.35-.1-.62-.3-.8-.21-.2-.5-.3-.9-.3s-.73.1-.97.27c-.24.18-.4.4-.48.64l-1.56-.23a2.48 2.48 0 0 1 1.65-1.73 4.43 4.43 0 0 1 2.38-.1c.33.08.64.2.92.4a2 2 0 0 1 .68.74c.17.31.25.7.25 1.17V403h-1.6v-.97h-.06a2.02 2.02 0 0 1-1.12.96c-.27.1-.59.15-.96.15Zm.43-1.22c.34 0 .63-.07.88-.2.24-.14.43-.32.56-.54.14-.22.2-.46.2-.72v-.84a.8.8 0 0 1-.26.12 15.48 15.48 0 0 1-.87.17l-.4.06c-.24.03-.47.09-.66.16-.2.08-.36.19-.47.33a.8.8 0 0 0-.17.52c0 .31.11.54.34.7.22.16.5.24.85.24Zm5 1.08v-7.1h1.62v1.2h.07a1.76 1.76 0 0 1 1.75-1.3 3.94 3.94 0 0 1 .6.05v1.54a3.19 3.19 0 0 0-.78-.1c-.3 0-.57.07-.82.2-.24.13-.43.31-.57.54-.13.23-.2.5-.2.8V403h-1.68Zm5.15 0v-7.1h1.67v7.1h-1.67Zm.84-8.1a.98.98 0 0 1-.68-.26.85.85 0 0 1-.29-.64c0-.25.1-.47.29-.64.19-.18.41-.27.68-.27.27 0 .5.09.68.27.2.17.29.39.29.64s-.1.46-.29.64a.96.96 0 0 1-.68.26Zm4.22 3.95V403h-1.67v-7.1h1.6v1.21h.08c.16-.4.42-.7.78-.94.36-.24.8-.35 1.33-.35.5 0 .92.1 1.28.31.37.21.65.51.85.91.2.4.3.88.3 1.44V403h-1.67v-4.26c0-.47-.12-.84-.37-1.1a1.3 1.3 0 0 0-1.01-.41c-.3 0-.55.06-.78.2-.23.12-.4.3-.53.54-.13.24-.19.53-.19.88Zm8.3 4.3c-.46 0-.86-.09-1.22-.25s-.64-.4-.85-.72c-.2-.31-.31-.7-.31-1.17a2 2 0 0 1 .22-1c.15-.25.35-.46.6-.62.26-.16.55-.28.87-.36.32-.08.65-.14 1-.18l1.01-.11c.26-.04.45-.1.56-.17.12-.07.18-.2.18-.35v-.03c0-.35-.1-.62-.3-.8-.21-.2-.5-.3-.9-.3s-.73.1-.97.27c-.24.18-.4.4-.48.64l-1.56-.23a2.49 2.49 0 0 1 1.65-1.73 4.41 4.41 0 0 1 2.38-.1c.33.08.64.2.92.4.28.18.5.42.68.74.17.31.25.7.25 1.17V403h-1.6v-.97h-.06a2.05 2.05 0 0 1-1.11.96c-.28.1-.6.15-.97.15Zm.43-1.23c.33 0 .62-.07.87-.2.24-.14.43-.32.56-.54.14-.22.2-.46.2-.72v-.84a.78.78 0 0 1-.26.12 16.03 16.03 0 0 1-.87.17l-.4.06c-.24.03-.47.09-.66.16-.2.08-.36.19-.47.33a.8.8 0 0 0-.17.52c0 .31.11.54.34.7.22.16.5.24.86.24Zm6.39 1.08-2.67-9.45h1.84l1.7 6.94h.1l1.81-6.94h1.68l1.82 6.95h.08l1.7-6.95h1.85l-2.67 9.45h-1.69l-1.89-6.63h-.07L365 403h-1.7Zm13.4.14c-.7 0-1.3-.15-1.8-.46-.52-.3-.9-.73-1.19-1.28a4.2 4.2 0 0 1-.41-1.92c0-.73.13-1.37.41-1.92.28-.55.67-.98 1.18-1.29.51-.3 1.11-.45 1.8-.45.7 0 1.3.15 1.8.45.51.3.9.74 1.18 1.29.28.55.42 1.19.42 1.92s-.14 1.38-.42 1.92c-.28.55-.67.98-1.18 1.28-.5.3-1.1.46-1.8.46Zm0-1.34c.38 0 .7-.1.94-.31.26-.2.44-.49.57-.84.12-.35.19-.74.19-1.17 0-.44-.07-.83-.2-1.18a1.85 1.85 0 0 0-.56-.84 1.42 1.42 0 0 0-.94-.32c-.38 0-.7.1-.96.32-.25.2-.44.49-.56.84-.13.35-.19.74-.19 1.18 0 .43.06.82.19 1.17.12.35.31.63.56.84.26.2.58.31.96.31Zm6.48-8.25V403h-1.67v-9.45h1.67Zm3.39 0V403h-1.67v-9.45h1.67Zm1.72 9.45v-7.1h1.67v7.1h-1.67Zm.84-8.1a.98.98 0 0 1-.68-.26.85.85 0 0 1-.29-.64c0-.25.1-.47.29-.64.19-.18.41-.27.68-.27.27 0 .5.09.68.27.2.17.29.39.29.64s-.1.46-.29.64a.96.96 0 0 1-.68.26Z" fill="#0A0812"/><g clip-path="url(#clip1_125_1126)"><path d="m310.89 374.74-17.14-7.07a.84.84 0 0 0-1.12.6.84.84 0 0 0 .04.48l7.07 17.13a.84.84 0 0 0 .82.52.84.84 0 0 0 .75-.6l2.08-7.27a.21.21 0 0 1 .14-.14l7.27-2.08a.83.83 0 0 0 .09-1.57Z" fill="#749FF6"/></g><circle cx="65" cy="134" r="5" fill="#BDD2FC" fill-opacity=".2"/><circle cx="85" cy="134" r="5" fill="#BDD2FC" fill-opacity=".2"/><circle cx="105" cy="134" r="5" fill="#BDD2FC" fill-opacity=".2"/></g><defs><filter id="filter0_df_125_1126" x="223" y="0" width="436" height="304" filterUnits="userSpaceOnUse" color-interpolation-filters="sRGB"><feFlood flood-opacity="0" result="BackgroundImageFix"/><feColorMatrix in="SourceAlpha" values="0 0 0 0 0 0 0 0 0 0 0 0 0 0 0 0 0 0 127 0" result="hardAlpha"/><feOffset dy="8"/><feGaussianBlur stdDeviation="15"/><feComposite in2="hardAlpha" operator="out"/><feColorMatrix values="0 0 0 0 0 0 0 0 0 0 0 0 0 0 0 0 0 0 0.3 0"/><feBlend in2="BackgroundImageFix" result="effect1_dropShadow_125_1126"/><feBlend in="SourceGraphic" in2="effect1_dropShadow_125_1126" result="shape"/><feGaussianBlur stdDeviation="2" result="effect2_foregroundBlur_125_1126"/></filter><filter id="filter1_b_125_1126" x="217" y="-14" width="448" height="316" filterUnits="userSpaceOnUse" color-interpolation-filters="sRGB"><feFlood flood-opacity="0" result="BackgroundImageFix"/><feGaussianBlur in="BackgroundImageFix" stdDeviation="18"/><feComposite in2="SourceAlpha" operator="in" result="effect1_backgroundBlur_125_1126"/><feBlend in="SourceGraphic" in2="effect1_backgroundBlur_125_1126" result="shape"/></filter><filter id="filter2_d_125_1126" x="0" y="81" width="582" height="406" filterUnits="userSpaceOnUse" color-interpolation-filters="sRGB"><feFlood flood-opacity="0" result="BackgroundImageFix"/><feColorMatrix in="SourceAlpha" values="0 0 0 0 0 0 0 0 0 0 0 0 0 0 0 0 0 0 127 0" result="hardAlpha"/><feOffset dy="10"/><feGaussianBlur stdDeviation="20"/><feComposite in2="hardAlpha" operator="out"/><feColorMatrix values="0 0 0 0 0 0 0 0 0 0 0 0 0 0 0 0 0 0 0.3 0"/><feBlend in2="BackgroundImageFix" result="effect1_dropShadow_125_1126"/><feBlend in="SourceGraphic" in2="effect1_dropShadow_125_1126" result="shape"/></filter><filter id="filter3_b_125_1126" x="-8" y="63" width="598" height="422" filterUnits="userSpaceOnUse" color-interpolation-filters="sRGB"><feFlood flood-opacity="0" result="BackgroundImageFix"/><feGaussianBlur in="BackgroundImageFix" stdDeviation="24"/><feComposite in2="SourceAlpha" operator="in" result="effect1_backgroundBlur_125_1126"/><feBlend in="SourceGraphic" in2="effect1_backgroundBlur_125_1126" result="shape"/></filter><filter id="filter4_f_125_1126" x="362" y="161" width="128" height="78" filterUnits="userSpaceOnUse" color-interpolation-filters="sRGB"><feFlood flood-opacity="0" result="BackgroundImageFix"/><feBlend in="SourceGraphic" in2="BackgroundImageFix" result="shape"/><feGaussianBlur stdDeviation="10" result="effect1_foregroundBlur_125_1126"/></filter><filter id="filter5_f_125_1126" x="282" y="356" width="144" height="84" filterUnits="userSpaceOnUse" color-interpolation-filters="sRGB"><feFlood flood-opacity="0" result="BackgroundImageFix"/><feBlend in="SourceGraphic" in2="BackgroundImageFix" result="shape"/><feGaussianBlur stdDeviation="10" result="effect1_foregroundBlur_125_1126"/></filter><linearGradient id="paint0_linear_125_1126" x1="441" y1="22" x2="441" y2="266" gradientUnits="userSpaceOnUse"><stop stop-color="#234690"/><stop offset="1" stop-color="#0A1834"/></linearGradient><linearGradient id="paint1_linear_125_1126" x1="441" y1="22" x2="441" y2="266" gradientUnits="userSpaceOnUse"><stop stop-color="#749FF6"/><stop offset="1" stop-color="#153984"/></linearGradient><linearGradient id="paint3_linear_125_1126" x1="253" y1="245.79" x2="628.87" y2="33.37" gradientUnits="userSpaceOnUse"><stop offset=".25" stop-color="#0A0D11"/><stop offset="1" stop-color="#0A0D11" stop-opacity=".3"/></linearGradient><linearGradient id="paint4_linear_125_1126" x1="291" y1="111" x2="291" y2="437" gradientUnits="userSpaceOnUse"><stop stop-color="#234690"/><stop offset="1" stop-color="#0A1834"/></linearGradient><linearGradient id="paint5_linear_125_1126" x1="291" y1="111" x2="291" y2="437" gradientUnits="userSpaceOnUse"><stop stop-color="#749FF6"/><stop offset="1" stop-color="#153984"/></linearGradient><radialGradient id="paint2_radial_125_1126" cx="0" cy="0" r="1" gradientUnits="userSpaceOnUse" gradientTransform="matrix(385.392 0 0 115.986 268 166.92)"><stop offset=".39" stop-color="#D9D9D9"/><stop offset="1" stop-color="#D9D9D9" stop-opacity="0"/></radialGradient><radialGradient id="paint6_radial_125_1126" cx="0" cy="0" r="1" gradientUnits="userSpaceOnUse" gradientTransform="matrix(514.568 0 0 154.833 60 305.07)"><stop offset=".39" stop-color="#D9D9D9"/><stop offset="1" stop-color="#D9D9D9" stop-opacity="0"/></radialGradient><clipPath id="clip0_125_1126"><path fill="#fff" d="M376 226h20v-20h-20z"/></clipPath><clipPath id="clip1_125_1126"><path fill="#fff" d="M292 367h20v20h-20z"/></clipPath></defs></svg>